G04 (created by PCBNEW (2013-07-07 BZR 4022)-stable) date 24/11/2014 17:48:06*
%MOIN*%
G04 Gerber Fmt 3.4, Leading zero omitted, Abs format*
%FSLAX34Y34*%
G01*
G70*
G90*
G04 APERTURE LIST*
%ADD10C,0.00590551*%
%ADD11C,0.005*%
%ADD12C,0.0059*%
%ADD13C,0.00787402*%
%ADD14C,0.00625*%
%ADD15C,0.0063*%
G04 APERTURE END LIST*
G54D10*
X89921Y-68661D02*
X89842Y-68740D01*
X89921Y-68661D02*
X89842Y-68582D01*
X89448Y-68661D02*
X89921Y-68661D01*
X89448Y-69370D02*
X89448Y-68188D01*
X88188Y-69370D02*
X89448Y-69370D01*
X88188Y-68188D02*
X88188Y-69370D01*
G54D11*
X80914Y-68705D02*
X80914Y-69405D01*
X80914Y-69405D02*
X79714Y-69405D01*
X79714Y-69405D02*
X79714Y-68705D01*
X79714Y-68705D02*
X80914Y-68705D01*
G54D10*
X89672Y-69921D02*
X89928Y-69665D01*
X89672Y-69665D02*
X91286Y-69665D01*
X91286Y-69665D02*
X91286Y-71279D01*
X91286Y-71279D02*
X89672Y-71279D01*
X89672Y-71279D02*
X89672Y-69665D01*
X93070Y-69606D02*
X93070Y-70039D01*
X93070Y-70039D02*
X92598Y-70039D01*
X92598Y-70039D02*
X92598Y-69173D01*
X92598Y-69173D02*
X93070Y-69173D01*
X93070Y-69173D02*
X93070Y-69606D01*
G54D12*
X91283Y-72488D02*
X91283Y-73472D01*
X91283Y-73472D02*
X90023Y-73472D01*
X90023Y-73472D02*
X90023Y-72488D01*
X90023Y-72488D02*
X91283Y-72488D01*
G54D10*
X93543Y-69133D02*
X93543Y-69566D01*
X93543Y-69566D02*
X93070Y-69566D01*
X93070Y-69566D02*
X93070Y-68700D01*
X93070Y-68700D02*
X93543Y-68700D01*
X93543Y-68700D02*
X93543Y-69133D01*
X92612Y-70251D02*
X92690Y-70172D01*
X92690Y-70172D02*
X92690Y-70408D01*
X91745Y-70290D02*
X92533Y-70290D01*
X92533Y-70290D02*
X92533Y-70762D01*
X92533Y-70762D02*
X91745Y-70762D01*
X91745Y-70762D02*
X91745Y-70290D01*
X82322Y-70551D02*
X82322Y-70866D01*
X82322Y-70866D02*
X81141Y-70866D01*
X81141Y-70866D02*
X81141Y-70236D01*
X81141Y-70236D02*
X82322Y-70236D01*
X82322Y-70236D02*
X82322Y-70551D01*
X80905Y-74015D02*
X80905Y-74330D01*
X80905Y-74330D02*
X79724Y-74330D01*
X79724Y-74330D02*
X79724Y-73700D01*
X79724Y-73700D02*
X80905Y-73700D01*
X80905Y-73700D02*
X80905Y-74015D01*
G54D11*
X85826Y-73562D02*
X83110Y-73562D01*
X83110Y-73562D02*
X83110Y-71023D01*
X83130Y-71023D02*
X83307Y-70846D01*
X83307Y-70846D02*
X85846Y-70846D01*
X85846Y-70846D02*
X85846Y-73543D01*
X83701Y-71220D02*
G75*
G03X83701Y-71220I-197J0D01*
G74*
G01*
G54D12*
X79783Y-71535D02*
X79684Y-71633D01*
X80944Y-73503D02*
X79684Y-73503D01*
X79684Y-73503D02*
X79684Y-71535D01*
X79684Y-71535D02*
X80944Y-71535D01*
X80944Y-71535D02*
X80944Y-73503D01*
G54D10*
X79724Y-71023D02*
X79724Y-70708D01*
X79724Y-70708D02*
X80905Y-70708D01*
X80905Y-70708D02*
X80905Y-71338D01*
X80905Y-71338D02*
X79724Y-71338D01*
X79724Y-71338D02*
X79724Y-71023D01*
X79724Y-70314D02*
X79724Y-70000D01*
X79724Y-70000D02*
X80905Y-70000D01*
X80905Y-70000D02*
X80905Y-70629D01*
X80905Y-70629D02*
X79724Y-70629D01*
X79724Y-70629D02*
X79724Y-70314D01*
G54D13*
X85149Y-68161D02*
X85249Y-68161D01*
X85249Y-68161D02*
X85249Y-69161D01*
X85249Y-69161D02*
X85149Y-69161D01*
X85149Y-69161D02*
X85199Y-69161D01*
X85199Y-69161D02*
X85199Y-68161D01*
X84149Y-69161D02*
X84149Y-68161D01*
X85149Y-69161D02*
X81149Y-69161D01*
X81149Y-69161D02*
X81149Y-68161D01*
X81149Y-68161D02*
X85149Y-68161D01*
X85149Y-68161D02*
X85149Y-69161D01*
X88400Y-68161D02*
X88350Y-68161D01*
X88350Y-69161D02*
X88450Y-69161D01*
X88450Y-69161D02*
X88450Y-68161D01*
X88450Y-68161D02*
X88400Y-68161D01*
X88400Y-68161D02*
X88400Y-69111D01*
X85350Y-68161D02*
X88350Y-68161D01*
X88350Y-69161D02*
X85350Y-69161D01*
X87350Y-69161D02*
X87350Y-68161D01*
X85350Y-69161D02*
X85350Y-68161D01*
X88350Y-68161D02*
X88350Y-69161D01*
G54D10*
X90574Y-69319D02*
X90259Y-69319D01*
X90259Y-69319D02*
X90259Y-68138D01*
X90259Y-68138D02*
X90889Y-68138D01*
X90889Y-68138D02*
X90889Y-69319D01*
X90889Y-69319D02*
X90574Y-69319D01*
X86653Y-69606D02*
X86653Y-69291D01*
X86653Y-69291D02*
X87834Y-69291D01*
X87834Y-69291D02*
X87834Y-69921D01*
X87834Y-69921D02*
X86653Y-69921D01*
X86653Y-69921D02*
X86653Y-69606D01*
X86653Y-73149D02*
X86653Y-72834D01*
X86653Y-72834D02*
X87834Y-72834D01*
X87834Y-72834D02*
X87834Y-73464D01*
X87834Y-73464D02*
X86653Y-73464D01*
X86653Y-73464D02*
X86653Y-73149D01*
X82322Y-72519D02*
X82322Y-72834D01*
X82322Y-72834D02*
X81141Y-72834D01*
X81141Y-72834D02*
X81141Y-72204D01*
X81141Y-72204D02*
X82322Y-72204D01*
X82322Y-72204D02*
X82322Y-72519D01*
X87874Y-71220D02*
X87874Y-71279D01*
X87874Y-71279D02*
X87244Y-71279D01*
X87244Y-71279D02*
X87244Y-71220D01*
X87244Y-71220D02*
X87244Y-71318D01*
X87244Y-71318D02*
X87874Y-71318D01*
X87874Y-71318D02*
X87874Y-71279D01*
X87559Y-70039D02*
X87874Y-70039D01*
X87874Y-70039D02*
X87874Y-71220D01*
X87874Y-71220D02*
X87244Y-71220D01*
X87244Y-71220D02*
X87244Y-70039D01*
X87244Y-70039D02*
X87598Y-70039D01*
X89173Y-70708D02*
X89173Y-71023D01*
X89173Y-71023D02*
X87992Y-71023D01*
X87992Y-71023D02*
X87992Y-70393D01*
X87992Y-70393D02*
X89173Y-70393D01*
X89173Y-70393D02*
X89173Y-70708D01*
X86417Y-74015D02*
X86417Y-73700D01*
X86417Y-73700D02*
X87598Y-73700D01*
X87598Y-73700D02*
X87598Y-74330D01*
X87598Y-74330D02*
X86417Y-74330D01*
X86417Y-74330D02*
X86417Y-74015D01*
X82322Y-71181D02*
X82322Y-71496D01*
X82322Y-71496D02*
X81141Y-71496D01*
X81141Y-71496D02*
X81141Y-70866D01*
X81141Y-70866D02*
X82322Y-70866D01*
X82322Y-70866D02*
X82322Y-71181D01*
X81417Y-73110D02*
X81732Y-73110D01*
X81732Y-73110D02*
X81732Y-74291D01*
X81732Y-74291D02*
X81102Y-74291D01*
X81102Y-74291D02*
X81102Y-73110D01*
X81102Y-73110D02*
X81417Y-73110D01*
X82047Y-73110D02*
X82362Y-73110D01*
X82362Y-73110D02*
X82362Y-74291D01*
X82362Y-74291D02*
X81732Y-74291D01*
X81732Y-74291D02*
X81732Y-73110D01*
X81732Y-73110D02*
X82047Y-73110D01*
X91755Y-72468D02*
X92070Y-72468D01*
X92070Y-72468D02*
X92070Y-73650D01*
X92070Y-73650D02*
X91440Y-73650D01*
X91440Y-73650D02*
X91440Y-72468D01*
X91440Y-72468D02*
X91755Y-72468D01*
X89551Y-73650D02*
X89236Y-73650D01*
X89236Y-73650D02*
X89236Y-72468D01*
X89236Y-72468D02*
X89865Y-72468D01*
X89865Y-72468D02*
X89865Y-73650D01*
X89865Y-73650D02*
X89551Y-73650D01*
X89944Y-69319D02*
X89629Y-69319D01*
X89629Y-69319D02*
X89629Y-68138D01*
X89629Y-68138D02*
X90259Y-68138D01*
X90259Y-68138D02*
X90259Y-69319D01*
X90259Y-69319D02*
X89944Y-69319D01*
X91007Y-72064D02*
X91007Y-72379D01*
X91007Y-72379D02*
X89826Y-72379D01*
X89826Y-72379D02*
X89826Y-71749D01*
X89826Y-71749D02*
X91007Y-71749D01*
X91007Y-71749D02*
X91007Y-72064D01*
X81141Y-69685D02*
X81141Y-69370D01*
X81141Y-69370D02*
X82322Y-69370D01*
X82322Y-69370D02*
X82322Y-70000D01*
X82322Y-70000D02*
X81141Y-70000D01*
X81141Y-70000D02*
X81141Y-69685D01*
X91755Y-71209D02*
X92070Y-71209D01*
X92070Y-71209D02*
X92070Y-72390D01*
X92070Y-72390D02*
X91440Y-72390D01*
X91440Y-72390D02*
X91440Y-71209D01*
X91440Y-71209D02*
X91755Y-71209D01*
X91991Y-69555D02*
X91677Y-69555D01*
X91677Y-69555D02*
X91677Y-68374D01*
X91677Y-68374D02*
X92306Y-68374D01*
X92306Y-68374D02*
X92306Y-69555D01*
X92306Y-69555D02*
X91991Y-69555D01*
X91204Y-69319D02*
X90889Y-69319D01*
X90889Y-69319D02*
X90889Y-68138D01*
X90889Y-68138D02*
X91519Y-68138D01*
X91519Y-68138D02*
X91519Y-69319D01*
X91519Y-69319D02*
X91204Y-69319D01*
X89173Y-71338D02*
X89173Y-71653D01*
X89173Y-71653D02*
X87992Y-71653D01*
X87992Y-71653D02*
X87992Y-71023D01*
X87992Y-71023D02*
X89173Y-71023D01*
X89173Y-71023D02*
X89173Y-71338D01*
X86220Y-70511D02*
X85905Y-70511D01*
X85905Y-70511D02*
X85905Y-69330D01*
X85905Y-69330D02*
X86535Y-69330D01*
X86535Y-69330D02*
X86535Y-70511D01*
X86535Y-70511D02*
X86220Y-70511D01*
X87244Y-71535D02*
X87244Y-71476D01*
X87244Y-71476D02*
X87874Y-71476D01*
X87874Y-71476D02*
X87874Y-71535D01*
X87874Y-71535D02*
X87874Y-71437D01*
X87874Y-71437D02*
X87244Y-71437D01*
X87244Y-71437D02*
X87244Y-71476D01*
X87559Y-72716D02*
X87244Y-72716D01*
X87244Y-72716D02*
X87244Y-71535D01*
X87244Y-71535D02*
X87874Y-71535D01*
X87874Y-71535D02*
X87874Y-72716D01*
X87874Y-72716D02*
X87519Y-72716D01*
G54D11*
X76810Y-68897D02*
X76810Y-73621D01*
X78385Y-71259D02*
X78385Y-68897D01*
X78385Y-68897D02*
X70983Y-68897D01*
X70983Y-68897D02*
X70983Y-71259D01*
X70983Y-71259D02*
X70983Y-73621D01*
X70983Y-73621D02*
X78385Y-73621D01*
X78385Y-73621D02*
X78385Y-71259D01*
G54D14*
X88936Y-69575D02*
X89079Y-69575D01*
X89007Y-69825D02*
X89007Y-69575D01*
X89162Y-69825D02*
X89162Y-69575D01*
X89257Y-69575D01*
X89281Y-69587D01*
X89293Y-69599D01*
X89305Y-69623D01*
X89305Y-69658D01*
X89293Y-69682D01*
X89281Y-69694D01*
X89257Y-69706D01*
X89162Y-69706D01*
X89400Y-69599D02*
X89412Y-69587D01*
X89436Y-69575D01*
X89496Y-69575D01*
X89519Y-69587D01*
X89531Y-69599D01*
X89543Y-69623D01*
X89543Y-69647D01*
X89531Y-69682D01*
X89388Y-69825D01*
X89543Y-69825D01*
G54D15*
G54D14*
X88345Y-72370D02*
X88488Y-72370D01*
X88417Y-72620D02*
X88417Y-72370D01*
X88572Y-72620D02*
X88572Y-72370D01*
X88667Y-72370D01*
X88691Y-72382D01*
X88703Y-72394D01*
X88714Y-72418D01*
X88714Y-72454D01*
X88703Y-72478D01*
X88691Y-72489D01*
X88667Y-72501D01*
X88572Y-72501D01*
X88953Y-72620D02*
X88810Y-72620D01*
X88881Y-72620D02*
X88881Y-72370D01*
X88857Y-72406D01*
X88834Y-72430D01*
X88810Y-72442D01*
G54D15*
G54D12*
X79687Y-69892D02*
X79293Y-69892D01*
X79687Y-69757D01*
X79293Y-69757D01*
X79649Y-69510D02*
X79668Y-69521D01*
X79687Y-69555D01*
X79687Y-69577D01*
X79668Y-69611D01*
X79630Y-69633D01*
X79593Y-69645D01*
X79518Y-69656D01*
X79461Y-69656D01*
X79386Y-69645D01*
X79349Y-69633D01*
X79311Y-69611D01*
X79293Y-69577D01*
X79293Y-69555D01*
X79311Y-69521D01*
X79330Y-69510D01*
X79687Y-69409D02*
X79293Y-69409D01*
X79293Y-69319D01*
X79311Y-69296D01*
X79330Y-69285D01*
X79368Y-69274D01*
X79424Y-69274D01*
X79461Y-69285D01*
X79480Y-69296D01*
X79499Y-69319D01*
X79499Y-69409D01*
X79293Y-69060D02*
X79293Y-69173D01*
X79480Y-69184D01*
X79461Y-69173D01*
X79443Y-69150D01*
X79443Y-69094D01*
X79461Y-69071D01*
X79480Y-69060D01*
X79518Y-69049D01*
X79611Y-69049D01*
X79649Y-69060D01*
X79668Y-69071D01*
X79687Y-69094D01*
X79687Y-69150D01*
X79668Y-69173D01*
X79649Y-69184D01*
X79461Y-68914D02*
X79443Y-68937D01*
X79424Y-68948D01*
X79386Y-68959D01*
X79368Y-68959D01*
X79330Y-68948D01*
X79311Y-68937D01*
X79293Y-68914D01*
X79293Y-68869D01*
X79311Y-68847D01*
X79330Y-68835D01*
X79368Y-68824D01*
X79386Y-68824D01*
X79424Y-68835D01*
X79443Y-68847D01*
X79461Y-68869D01*
X79461Y-68914D01*
X79480Y-68937D01*
X79499Y-68948D01*
X79536Y-68959D01*
X79611Y-68959D01*
X79649Y-68948D01*
X79668Y-68937D01*
X79687Y-68914D01*
X79687Y-68869D01*
X79668Y-68847D01*
X79649Y-68835D01*
X79611Y-68824D01*
X79536Y-68824D01*
X79499Y-68835D01*
X79480Y-68847D01*
X79461Y-68869D01*
X79293Y-68746D02*
X79293Y-68599D01*
X79443Y-68678D01*
X79443Y-68644D01*
X79461Y-68622D01*
X79480Y-68611D01*
X79518Y-68599D01*
X79611Y-68599D01*
X79649Y-68611D01*
X79668Y-68622D01*
X79687Y-68644D01*
X79687Y-68712D01*
X79668Y-68734D01*
X79649Y-68746D01*
X79668Y-68510D02*
X79687Y-68476D01*
X79687Y-68420D01*
X79668Y-68397D01*
X79649Y-68386D01*
X79611Y-68375D01*
X79574Y-68375D01*
X79536Y-68386D01*
X79518Y-68397D01*
X79499Y-68420D01*
X79480Y-68465D01*
X79461Y-68487D01*
X79443Y-68498D01*
X79405Y-68510D01*
X79368Y-68510D01*
X79330Y-68498D01*
X79311Y-68487D01*
X79293Y-68465D01*
X79293Y-68408D01*
X79311Y-68375D01*
X79724Y-68116D02*
X79705Y-68139D01*
X79668Y-68161D01*
X79611Y-68195D01*
X79593Y-68217D01*
X79593Y-68240D01*
X79687Y-68229D02*
X79668Y-68251D01*
X79630Y-68274D01*
X79555Y-68285D01*
X79424Y-68285D01*
X79349Y-68274D01*
X79311Y-68251D01*
X79293Y-68229D01*
X79293Y-68184D01*
X79311Y-68161D01*
X79349Y-68139D01*
X79424Y-68127D01*
X79555Y-68127D01*
X79630Y-68139D01*
X79668Y-68161D01*
X79687Y-68184D01*
X79687Y-68229D01*
G54D10*
X92969Y-68976D02*
X92969Y-69088D01*
X92733Y-69088D01*
X92969Y-68773D02*
X92969Y-68908D01*
X92969Y-68841D02*
X92733Y-68841D01*
X92767Y-68863D01*
X92789Y-68886D01*
X92800Y-68908D01*
X92851Y-70658D02*
X92851Y-70770D01*
X92964Y-70781D01*
X92952Y-70770D01*
X92941Y-70748D01*
X92941Y-70691D01*
X92952Y-70669D01*
X92964Y-70658D01*
X92986Y-70646D01*
X93042Y-70646D01*
X93065Y-70658D01*
X93076Y-70669D01*
X93087Y-70691D01*
X93087Y-70748D01*
X93076Y-70770D01*
X93065Y-70781D01*
X93065Y-70545D02*
X93076Y-70534D01*
X93087Y-70545D01*
X93076Y-70556D01*
X93065Y-70545D01*
X93087Y-70545D01*
X92851Y-70331D02*
X92851Y-70376D01*
X92862Y-70399D01*
X92874Y-70410D01*
X92907Y-70433D01*
X92952Y-70444D01*
X93042Y-70444D01*
X93065Y-70433D01*
X93076Y-70421D01*
X93087Y-70399D01*
X93087Y-70354D01*
X93076Y-70331D01*
X93065Y-70320D01*
X93042Y-70309D01*
X92986Y-70309D01*
X92964Y-70320D01*
X92952Y-70331D01*
X92941Y-70354D01*
X92941Y-70399D01*
X92952Y-70421D01*
X92964Y-70433D01*
X92986Y-70444D01*
X92930Y-70208D02*
X93087Y-70208D01*
X92952Y-70208D02*
X92941Y-70196D01*
X92930Y-70174D01*
X92930Y-70140D01*
X92941Y-70118D01*
X92964Y-70106D01*
X93087Y-70106D01*
X93087Y-69994D02*
X92851Y-69994D01*
X92964Y-69994D02*
X92964Y-69859D01*
X93087Y-69859D02*
X92851Y-69859D01*
G54D12*
X90963Y-74021D02*
X91120Y-74257D01*
X91120Y-74021D02*
X90963Y-74257D01*
X91176Y-74021D02*
X91311Y-74021D01*
X91244Y-74257D02*
X91244Y-74021D01*
X91378Y-74189D02*
X91491Y-74189D01*
X91356Y-74257D02*
X91435Y-74021D01*
X91513Y-74257D01*
X91704Y-74257D02*
X91592Y-74257D01*
X91592Y-74021D01*
X91907Y-74257D02*
X91772Y-74257D01*
X91839Y-74257D02*
X91839Y-74021D01*
X91817Y-74055D01*
X91794Y-74077D01*
X91772Y-74088D01*
X89568Y-74043D02*
X89579Y-74032D01*
X89602Y-74021D01*
X89658Y-74021D01*
X89680Y-74032D01*
X89692Y-74043D01*
X89703Y-74066D01*
X89703Y-74088D01*
X89692Y-74122D01*
X89557Y-74257D01*
X89703Y-74257D01*
X89781Y-74021D02*
X89939Y-74021D01*
X89838Y-74257D01*
X90029Y-74257D02*
X90029Y-74021D01*
X90107Y-74189D01*
X90186Y-74021D01*
X90186Y-74257D01*
X90298Y-74257D02*
X90298Y-74021D01*
X90298Y-74133D02*
X90433Y-74133D01*
X90433Y-74257D02*
X90433Y-74021D01*
X90523Y-74100D02*
X90647Y-74100D01*
X90523Y-74257D01*
X90647Y-74257D01*
G54D10*
X93402Y-70624D02*
X93402Y-70759D01*
X93402Y-70691D02*
X93166Y-70691D01*
X93200Y-70714D01*
X93222Y-70736D01*
X93233Y-70759D01*
X93380Y-70523D02*
X93391Y-70511D01*
X93402Y-70523D01*
X93391Y-70534D01*
X93380Y-70523D01*
X93402Y-70523D01*
X93267Y-70376D02*
X93256Y-70399D01*
X93245Y-70410D01*
X93222Y-70421D01*
X93211Y-70421D01*
X93188Y-70410D01*
X93177Y-70399D01*
X93166Y-70376D01*
X93166Y-70331D01*
X93177Y-70309D01*
X93188Y-70298D01*
X93211Y-70286D01*
X93222Y-70286D01*
X93245Y-70298D01*
X93256Y-70309D01*
X93267Y-70331D01*
X93267Y-70376D01*
X93278Y-70399D01*
X93290Y-70410D01*
X93312Y-70421D01*
X93357Y-70421D01*
X93380Y-70410D01*
X93391Y-70399D01*
X93402Y-70376D01*
X93402Y-70331D01*
X93391Y-70309D01*
X93380Y-70298D01*
X93357Y-70286D01*
X93312Y-70286D01*
X93290Y-70298D01*
X93278Y-70309D01*
X93267Y-70331D01*
X93245Y-70185D02*
X93481Y-70185D01*
X93256Y-70185D02*
X93245Y-70163D01*
X93245Y-70118D01*
X93256Y-70095D01*
X93267Y-70084D01*
X93290Y-70073D01*
X93357Y-70073D01*
X93380Y-70084D01*
X93391Y-70095D01*
X93402Y-70118D01*
X93402Y-70163D01*
X93391Y-70185D01*
X93278Y-69893D02*
X93278Y-69971D01*
X93402Y-69971D02*
X93166Y-69971D01*
X93166Y-69859D01*
X91891Y-70553D02*
X91925Y-70564D01*
X91936Y-70576D01*
X91947Y-70598D01*
X91947Y-70632D01*
X91936Y-70654D01*
X91925Y-70666D01*
X91902Y-70677D01*
X91812Y-70677D01*
X91812Y-70441D01*
X91891Y-70441D01*
X91913Y-70452D01*
X91925Y-70463D01*
X91936Y-70486D01*
X91936Y-70508D01*
X91925Y-70531D01*
X91913Y-70542D01*
X91891Y-70553D01*
X91812Y-70553D01*
X92161Y-70677D02*
X92048Y-70677D01*
X92048Y-70441D01*
X92239Y-70677D02*
X92239Y-70441D01*
X92374Y-70677D01*
X92374Y-70441D01*
X92611Y-70677D02*
X92476Y-70677D01*
X92543Y-70677D02*
X92543Y-70441D01*
X92521Y-70474D01*
X92498Y-70497D01*
X92476Y-70508D01*
X81541Y-70624D02*
X81529Y-70635D01*
X81496Y-70646D01*
X81473Y-70646D01*
X81439Y-70635D01*
X81417Y-70613D01*
X81406Y-70590D01*
X81394Y-70545D01*
X81394Y-70511D01*
X81406Y-70466D01*
X81417Y-70444D01*
X81439Y-70421D01*
X81473Y-70410D01*
X81496Y-70410D01*
X81529Y-70421D01*
X81541Y-70433D01*
X81766Y-70646D02*
X81631Y-70646D01*
X81698Y-70646D02*
X81698Y-70410D01*
X81676Y-70444D01*
X81653Y-70466D01*
X81631Y-70478D01*
X81856Y-70433D02*
X81867Y-70421D01*
X81889Y-70410D01*
X81946Y-70410D01*
X81968Y-70421D01*
X81979Y-70433D01*
X81991Y-70455D01*
X81991Y-70478D01*
X81979Y-70511D01*
X81844Y-70646D01*
X81991Y-70646D01*
X82615Y-70703D02*
X82615Y-70838D01*
X82615Y-70770D02*
X82379Y-70770D01*
X82412Y-70793D01*
X82435Y-70815D01*
X82446Y-70838D01*
X82379Y-70556D02*
X82379Y-70534D01*
X82390Y-70511D01*
X82401Y-70500D01*
X82424Y-70489D01*
X82469Y-70478D01*
X82525Y-70478D01*
X82570Y-70489D01*
X82592Y-70500D01*
X82604Y-70511D01*
X82615Y-70534D01*
X82615Y-70556D01*
X82604Y-70579D01*
X82592Y-70590D01*
X82570Y-70601D01*
X82525Y-70613D01*
X82469Y-70613D01*
X82424Y-70601D01*
X82401Y-70590D01*
X82390Y-70579D01*
X82379Y-70556D01*
X82457Y-70275D02*
X82615Y-70275D01*
X82457Y-70376D02*
X82581Y-70376D01*
X82604Y-70365D01*
X82615Y-70343D01*
X82615Y-70309D01*
X82604Y-70286D01*
X82592Y-70275D01*
X79060Y-73262D02*
X79049Y-73273D01*
X79015Y-73284D01*
X78993Y-73284D01*
X78959Y-73273D01*
X78937Y-73250D01*
X78925Y-73228D01*
X78914Y-73183D01*
X78914Y-73149D01*
X78925Y-73104D01*
X78937Y-73082D01*
X78959Y-73059D01*
X78993Y-73048D01*
X79015Y-73048D01*
X79049Y-73059D01*
X79060Y-73070D01*
X79285Y-73284D02*
X79150Y-73284D01*
X79218Y-73284D02*
X79218Y-73048D01*
X79195Y-73082D01*
X79173Y-73104D01*
X79150Y-73115D01*
X79364Y-73048D02*
X79521Y-73048D01*
X79420Y-73284D01*
X78745Y-73385D02*
X78757Y-73374D01*
X78779Y-73363D01*
X78835Y-73363D01*
X78858Y-73374D01*
X78869Y-73385D01*
X78880Y-73408D01*
X78880Y-73430D01*
X78869Y-73464D01*
X78734Y-73599D01*
X78880Y-73599D01*
X79026Y-73363D02*
X79049Y-73363D01*
X79071Y-73374D01*
X79083Y-73385D01*
X79094Y-73408D01*
X79105Y-73453D01*
X79105Y-73509D01*
X79094Y-73554D01*
X79083Y-73577D01*
X79071Y-73588D01*
X79049Y-73599D01*
X79026Y-73599D01*
X79004Y-73588D01*
X78993Y-73577D01*
X78982Y-73554D01*
X78970Y-73509D01*
X78970Y-73453D01*
X78982Y-73408D01*
X78993Y-73385D01*
X79004Y-73374D01*
X79026Y-73363D01*
X79206Y-73442D02*
X79206Y-73678D01*
X79206Y-73453D02*
X79229Y-73442D01*
X79274Y-73442D01*
X79296Y-73453D01*
X79308Y-73464D01*
X79319Y-73487D01*
X79319Y-73554D01*
X79308Y-73577D01*
X79296Y-73588D01*
X79274Y-73599D01*
X79229Y-73599D01*
X79206Y-73588D01*
X79499Y-73475D02*
X79420Y-73475D01*
X79420Y-73599D02*
X79420Y-73363D01*
X79533Y-73363D01*
G54D12*
X84274Y-71985D02*
X84274Y-71749D01*
X84330Y-71749D01*
X84364Y-71760D01*
X84387Y-71783D01*
X84398Y-71805D01*
X84409Y-71850D01*
X84409Y-71884D01*
X84398Y-71929D01*
X84387Y-71951D01*
X84364Y-71974D01*
X84330Y-71985D01*
X84274Y-71985D01*
X84510Y-71985D02*
X84510Y-71749D01*
X84566Y-71749D01*
X84600Y-71760D01*
X84623Y-71783D01*
X84634Y-71805D01*
X84645Y-71850D01*
X84645Y-71884D01*
X84634Y-71929D01*
X84623Y-71951D01*
X84600Y-71974D01*
X84566Y-71985D01*
X84510Y-71985D01*
X84870Y-71985D02*
X84735Y-71985D01*
X84802Y-71985D02*
X84802Y-71749D01*
X84780Y-71783D01*
X84757Y-71805D01*
X84735Y-71816D01*
X83184Y-72485D02*
X83218Y-72497D01*
X83274Y-72497D01*
X83297Y-72485D01*
X83308Y-72474D01*
X83319Y-72452D01*
X83319Y-72429D01*
X83308Y-72407D01*
X83297Y-72395D01*
X83274Y-72384D01*
X83229Y-72373D01*
X83207Y-72362D01*
X83195Y-72351D01*
X83184Y-72328D01*
X83184Y-72306D01*
X83195Y-72283D01*
X83207Y-72272D01*
X83229Y-72261D01*
X83285Y-72261D01*
X83319Y-72272D01*
X83386Y-72261D02*
X83521Y-72261D01*
X83454Y-72497D02*
X83454Y-72261D01*
X83600Y-72497D02*
X83600Y-72261D01*
X83679Y-72429D01*
X83757Y-72261D01*
X83757Y-72497D01*
X83847Y-72261D02*
X83993Y-72261D01*
X83915Y-72351D01*
X83948Y-72351D01*
X83971Y-72362D01*
X83982Y-72373D01*
X83993Y-72395D01*
X83993Y-72452D01*
X83982Y-72474D01*
X83971Y-72485D01*
X83948Y-72497D01*
X83881Y-72497D01*
X83858Y-72485D01*
X83847Y-72474D01*
X84083Y-72283D02*
X84094Y-72272D01*
X84117Y-72261D01*
X84173Y-72261D01*
X84196Y-72272D01*
X84207Y-72283D01*
X84218Y-72306D01*
X84218Y-72328D01*
X84207Y-72362D01*
X84072Y-72497D01*
X84218Y-72497D01*
X84432Y-72497D02*
X84319Y-72497D01*
X84319Y-72261D01*
X84634Y-72497D02*
X84499Y-72497D01*
X84566Y-72497D02*
X84566Y-72261D01*
X84544Y-72294D01*
X84521Y-72317D01*
X84499Y-72328D01*
X84847Y-72261D02*
X84735Y-72261D01*
X84724Y-72373D01*
X84735Y-72362D01*
X84757Y-72351D01*
X84814Y-72351D01*
X84836Y-72362D01*
X84847Y-72373D01*
X84859Y-72395D01*
X84859Y-72452D01*
X84847Y-72474D01*
X84836Y-72485D01*
X84814Y-72497D01*
X84757Y-72497D01*
X84735Y-72485D01*
X84724Y-72474D01*
X85083Y-72497D02*
X84949Y-72497D01*
X85016Y-72497D02*
X85016Y-72261D01*
X84993Y-72294D01*
X84971Y-72317D01*
X84949Y-72328D01*
X85319Y-72474D02*
X85308Y-72485D01*
X85274Y-72497D01*
X85252Y-72497D01*
X85218Y-72485D01*
X85196Y-72463D01*
X85185Y-72440D01*
X85173Y-72395D01*
X85173Y-72362D01*
X85185Y-72317D01*
X85196Y-72294D01*
X85218Y-72272D01*
X85252Y-72261D01*
X85274Y-72261D01*
X85308Y-72272D01*
X85319Y-72283D01*
X85398Y-72261D02*
X85555Y-72497D01*
X85555Y-72261D02*
X85398Y-72497D01*
X85612Y-72261D02*
X85746Y-72261D01*
X85679Y-72497D02*
X85679Y-72261D01*
X85803Y-72261D02*
X85960Y-72497D01*
X85960Y-72261D02*
X85803Y-72497D01*
X80553Y-72963D02*
X80553Y-73106D01*
X80553Y-73034D02*
X80159Y-73034D01*
X80215Y-73058D01*
X80252Y-73082D01*
X80271Y-73106D01*
X80196Y-72868D02*
X80177Y-72856D01*
X80159Y-72832D01*
X80159Y-72772D01*
X80177Y-72749D01*
X80196Y-72737D01*
X80234Y-72725D01*
X80271Y-72725D01*
X80328Y-72737D01*
X80553Y-72880D01*
X80553Y-72725D01*
X80515Y-72618D02*
X80534Y-72606D01*
X80553Y-72618D01*
X80534Y-72630D01*
X80515Y-72618D01*
X80553Y-72618D01*
X80159Y-72451D02*
X80159Y-72427D01*
X80177Y-72403D01*
X80196Y-72391D01*
X80234Y-72380D01*
X80309Y-72368D01*
X80403Y-72368D01*
X80478Y-72380D01*
X80515Y-72391D01*
X80534Y-72403D01*
X80553Y-72427D01*
X80553Y-72451D01*
X80534Y-72475D01*
X80515Y-72487D01*
X80478Y-72499D01*
X80403Y-72511D01*
X80309Y-72511D01*
X80234Y-72499D01*
X80196Y-72487D01*
X80177Y-72475D01*
X80159Y-72451D01*
X80553Y-72261D02*
X80159Y-72261D01*
X80440Y-72177D01*
X80159Y-72094D01*
X80553Y-72094D01*
X80553Y-71975D02*
X80159Y-71975D01*
X80346Y-71975D02*
X80346Y-71832D01*
X80553Y-71832D02*
X80159Y-71832D01*
X80290Y-71737D02*
X80290Y-71606D01*
X80553Y-71737D01*
X80553Y-71606D01*
G54D10*
X79246Y-71372D02*
X79257Y-71383D01*
X79268Y-71417D01*
X79268Y-71439D01*
X79257Y-71473D01*
X79235Y-71496D01*
X79212Y-71507D01*
X79167Y-71518D01*
X79133Y-71518D01*
X79088Y-71507D01*
X79066Y-71496D01*
X79043Y-71473D01*
X79032Y-71439D01*
X79032Y-71417D01*
X79043Y-71383D01*
X79055Y-71372D01*
X79055Y-71282D02*
X79043Y-71271D01*
X79032Y-71248D01*
X79032Y-71192D01*
X79043Y-71169D01*
X79055Y-71158D01*
X79077Y-71147D01*
X79100Y-71147D01*
X79133Y-71158D01*
X79268Y-71293D01*
X79268Y-71147D01*
X79032Y-71001D02*
X79032Y-70978D01*
X79043Y-70956D01*
X79055Y-70944D01*
X79077Y-70933D01*
X79122Y-70922D01*
X79178Y-70922D01*
X79223Y-70933D01*
X79246Y-70944D01*
X79257Y-70956D01*
X79268Y-70978D01*
X79268Y-71001D01*
X79257Y-71023D01*
X79246Y-71034D01*
X79223Y-71046D01*
X79178Y-71057D01*
X79122Y-71057D01*
X79077Y-71046D01*
X79055Y-71034D01*
X79043Y-71023D01*
X79032Y-71001D01*
X79370Y-71529D02*
X79358Y-71518D01*
X79347Y-71496D01*
X79347Y-71439D01*
X79358Y-71417D01*
X79370Y-71406D01*
X79392Y-71394D01*
X79415Y-71394D01*
X79448Y-71406D01*
X79583Y-71541D01*
X79583Y-71394D01*
X79347Y-71248D02*
X79347Y-71226D01*
X79358Y-71203D01*
X79370Y-71192D01*
X79392Y-71181D01*
X79437Y-71169D01*
X79493Y-71169D01*
X79538Y-71181D01*
X79561Y-71192D01*
X79572Y-71203D01*
X79583Y-71226D01*
X79583Y-71248D01*
X79572Y-71271D01*
X79561Y-71282D01*
X79538Y-71293D01*
X79493Y-71304D01*
X79437Y-71304D01*
X79392Y-71293D01*
X79370Y-71282D01*
X79358Y-71271D01*
X79347Y-71248D01*
X79426Y-71068D02*
X79662Y-71068D01*
X79437Y-71068D02*
X79426Y-71046D01*
X79426Y-71001D01*
X79437Y-70978D01*
X79448Y-70967D01*
X79471Y-70956D01*
X79538Y-70956D01*
X79561Y-70967D01*
X79572Y-70978D01*
X79583Y-71001D01*
X79583Y-71046D01*
X79572Y-71068D01*
X79460Y-70776D02*
X79460Y-70854D01*
X79583Y-70854D02*
X79347Y-70854D01*
X79347Y-70742D01*
X79364Y-70388D02*
X79375Y-70399D01*
X79386Y-70433D01*
X79386Y-70455D01*
X79375Y-70489D01*
X79353Y-70511D01*
X79330Y-70523D01*
X79285Y-70534D01*
X79251Y-70534D01*
X79206Y-70523D01*
X79184Y-70511D01*
X79161Y-70489D01*
X79150Y-70455D01*
X79150Y-70433D01*
X79161Y-70399D01*
X79173Y-70388D01*
X79386Y-70163D02*
X79386Y-70298D01*
X79386Y-70230D02*
X79150Y-70230D01*
X79184Y-70253D01*
X79206Y-70275D01*
X79218Y-70298D01*
X79386Y-70050D02*
X79386Y-70005D01*
X79375Y-69983D01*
X79364Y-69971D01*
X79330Y-69949D01*
X79285Y-69938D01*
X79195Y-69938D01*
X79173Y-69949D01*
X79161Y-69960D01*
X79150Y-69983D01*
X79150Y-70028D01*
X79161Y-70050D01*
X79173Y-70061D01*
X79195Y-70073D01*
X79251Y-70073D01*
X79274Y-70061D01*
X79285Y-70050D01*
X79296Y-70028D01*
X79296Y-69983D01*
X79285Y-69960D01*
X79274Y-69949D01*
X79251Y-69938D01*
X79662Y-70393D02*
X79662Y-70528D01*
X79662Y-70461D02*
X79426Y-70461D01*
X79460Y-70483D01*
X79482Y-70506D01*
X79493Y-70528D01*
X79505Y-70191D02*
X79662Y-70191D01*
X79505Y-70292D02*
X79628Y-70292D01*
X79651Y-70281D01*
X79662Y-70258D01*
X79662Y-70224D01*
X79651Y-70202D01*
X79640Y-70191D01*
X83453Y-69229D02*
X83610Y-69465D01*
X83610Y-69229D02*
X83453Y-69465D01*
X83813Y-69465D02*
X83700Y-69465D01*
X83700Y-69229D01*
X84015Y-69465D02*
X83880Y-69465D01*
X83948Y-69465D02*
X83948Y-69229D01*
X83925Y-69263D01*
X83903Y-69285D01*
X83880Y-69296D01*
X86091Y-68875D02*
X86248Y-69111D01*
X86248Y-68875D02*
X86091Y-69111D01*
X86451Y-69111D02*
X86338Y-69111D01*
X86338Y-68875D01*
X86518Y-68897D02*
X86529Y-68886D01*
X86552Y-68875D01*
X86608Y-68875D01*
X86631Y-68886D01*
X86642Y-68897D01*
X86653Y-68920D01*
X86653Y-68942D01*
X86642Y-68976D01*
X86507Y-69111D01*
X86653Y-69111D01*
X90686Y-68976D02*
X90573Y-69055D01*
X90686Y-69111D02*
X90449Y-69111D01*
X90449Y-69021D01*
X90461Y-68998D01*
X90472Y-68987D01*
X90494Y-68976D01*
X90528Y-68976D01*
X90551Y-68987D01*
X90562Y-68998D01*
X90573Y-69021D01*
X90573Y-69111D01*
X90472Y-68886D02*
X90461Y-68875D01*
X90449Y-68852D01*
X90449Y-68796D01*
X90461Y-68773D01*
X90472Y-68762D01*
X90494Y-68751D01*
X90517Y-68751D01*
X90551Y-68762D01*
X90686Y-68897D01*
X90686Y-68751D01*
X88796Y-69049D02*
X88796Y-69161D01*
X88908Y-69173D01*
X88897Y-69161D01*
X88886Y-69139D01*
X88886Y-69083D01*
X88897Y-69060D01*
X88908Y-69049D01*
X88931Y-69038D01*
X88987Y-69038D01*
X89010Y-69049D01*
X89021Y-69060D01*
X89032Y-69083D01*
X89032Y-69139D01*
X89021Y-69161D01*
X89010Y-69173D01*
X88796Y-68835D02*
X88796Y-68880D01*
X88807Y-68903D01*
X88818Y-68914D01*
X88852Y-68937D01*
X88897Y-68948D01*
X88987Y-68948D01*
X89010Y-68937D01*
X89021Y-68925D01*
X89032Y-68903D01*
X89032Y-68858D01*
X89021Y-68835D01*
X89010Y-68824D01*
X88987Y-68813D01*
X88931Y-68813D01*
X88908Y-68824D01*
X88897Y-68835D01*
X88886Y-68858D01*
X88886Y-68903D01*
X88897Y-68925D01*
X88908Y-68937D01*
X88931Y-68948D01*
X89032Y-68712D02*
X88796Y-68712D01*
X88942Y-68689D02*
X89032Y-68622D01*
X88875Y-68622D02*
X88965Y-68712D01*
X87244Y-69741D02*
X87165Y-69628D01*
X87109Y-69741D02*
X87109Y-69505D01*
X87199Y-69505D01*
X87221Y-69516D01*
X87232Y-69527D01*
X87244Y-69550D01*
X87244Y-69583D01*
X87232Y-69606D01*
X87221Y-69617D01*
X87199Y-69628D01*
X87109Y-69628D01*
X87356Y-69741D02*
X87401Y-69741D01*
X87424Y-69730D01*
X87435Y-69718D01*
X87457Y-69685D01*
X87469Y-69640D01*
X87469Y-69550D01*
X87457Y-69527D01*
X87446Y-69516D01*
X87424Y-69505D01*
X87379Y-69505D01*
X87356Y-69516D01*
X87345Y-69527D01*
X87334Y-69550D01*
X87334Y-69606D01*
X87345Y-69628D01*
X87356Y-69640D01*
X87379Y-69651D01*
X87424Y-69651D01*
X87446Y-69640D01*
X87457Y-69628D01*
X87469Y-69606D01*
X86749Y-70410D02*
X86749Y-70523D01*
X86861Y-70534D01*
X86850Y-70523D01*
X86839Y-70500D01*
X86839Y-70444D01*
X86850Y-70421D01*
X86861Y-70410D01*
X86884Y-70399D01*
X86940Y-70399D01*
X86962Y-70410D01*
X86974Y-70421D01*
X86985Y-70444D01*
X86985Y-70500D01*
X86974Y-70523D01*
X86962Y-70534D01*
X86985Y-70174D02*
X86985Y-70309D01*
X86985Y-70241D02*
X86749Y-70241D01*
X86782Y-70264D01*
X86805Y-70286D01*
X86816Y-70309D01*
X86985Y-69938D02*
X86872Y-70016D01*
X86985Y-70073D02*
X86749Y-70073D01*
X86749Y-69983D01*
X86760Y-69960D01*
X86771Y-69949D01*
X86794Y-69938D01*
X86827Y-69938D01*
X86850Y-69949D01*
X86861Y-69960D01*
X86872Y-69983D01*
X86872Y-70073D01*
X88070Y-73087D02*
X87992Y-72975D01*
X87935Y-73087D02*
X87935Y-72851D01*
X88025Y-72851D01*
X88048Y-72862D01*
X88059Y-72874D01*
X88070Y-72896D01*
X88070Y-72930D01*
X88059Y-72952D01*
X88048Y-72964D01*
X88025Y-72975D01*
X87935Y-72975D01*
X88205Y-72952D02*
X88183Y-72941D01*
X88172Y-72930D01*
X88160Y-72907D01*
X88160Y-72896D01*
X88172Y-72874D01*
X88183Y-72862D01*
X88205Y-72851D01*
X88250Y-72851D01*
X88273Y-72862D01*
X88284Y-72874D01*
X88295Y-72896D01*
X88295Y-72907D01*
X88284Y-72930D01*
X88273Y-72941D01*
X88250Y-72952D01*
X88205Y-72952D01*
X88183Y-72964D01*
X88172Y-72975D01*
X88160Y-72997D01*
X88160Y-73042D01*
X88172Y-73065D01*
X88183Y-73076D01*
X88205Y-73087D01*
X88250Y-73087D01*
X88273Y-73076D01*
X88284Y-73065D01*
X88295Y-73042D01*
X88295Y-72997D01*
X88284Y-72975D01*
X88273Y-72964D01*
X88250Y-72952D01*
X88014Y-73205D02*
X87902Y-73205D01*
X87890Y-73318D01*
X87902Y-73307D01*
X87924Y-73295D01*
X87980Y-73295D01*
X88003Y-73307D01*
X88014Y-73318D01*
X88025Y-73340D01*
X88025Y-73397D01*
X88014Y-73419D01*
X88003Y-73430D01*
X87980Y-73442D01*
X87924Y-73442D01*
X87902Y-73430D01*
X87890Y-73419D01*
X88250Y-73442D02*
X88115Y-73442D01*
X88183Y-73442D02*
X88183Y-73205D01*
X88160Y-73239D01*
X88138Y-73262D01*
X88115Y-73273D01*
X88487Y-73442D02*
X88408Y-73329D01*
X88352Y-73442D02*
X88352Y-73205D01*
X88442Y-73205D01*
X88464Y-73217D01*
X88475Y-73228D01*
X88487Y-73250D01*
X88487Y-73284D01*
X88475Y-73307D01*
X88464Y-73318D01*
X88442Y-73329D01*
X88352Y-73329D01*
X81692Y-72654D02*
X81614Y-72542D01*
X81557Y-72654D02*
X81557Y-72418D01*
X81647Y-72418D01*
X81670Y-72429D01*
X81681Y-72440D01*
X81692Y-72463D01*
X81692Y-72497D01*
X81681Y-72519D01*
X81670Y-72530D01*
X81647Y-72542D01*
X81557Y-72542D01*
X81917Y-72654D02*
X81782Y-72654D01*
X81850Y-72654D02*
X81850Y-72418D01*
X81827Y-72452D01*
X81805Y-72474D01*
X81782Y-72485D01*
X81321Y-71929D02*
X81332Y-71917D01*
X81355Y-71906D01*
X81411Y-71906D01*
X81434Y-71917D01*
X81445Y-71929D01*
X81456Y-71951D01*
X81456Y-71974D01*
X81445Y-72007D01*
X81310Y-72142D01*
X81456Y-72142D01*
X81546Y-71929D02*
X81557Y-71917D01*
X81580Y-71906D01*
X81636Y-71906D01*
X81659Y-71917D01*
X81670Y-71929D01*
X81681Y-71951D01*
X81681Y-71974D01*
X81670Y-72007D01*
X81535Y-72142D01*
X81681Y-72142D01*
X81827Y-71906D02*
X81850Y-71906D01*
X81872Y-71917D01*
X81884Y-71929D01*
X81895Y-71951D01*
X81906Y-71996D01*
X81906Y-72052D01*
X81895Y-72097D01*
X81884Y-72120D01*
X81872Y-72131D01*
X81850Y-72142D01*
X81827Y-72142D01*
X81805Y-72131D01*
X81794Y-72120D01*
X81782Y-72097D01*
X81771Y-72052D01*
X81771Y-71996D01*
X81782Y-71951D01*
X81794Y-71929D01*
X81805Y-71917D01*
X81827Y-71906D01*
X82142Y-72142D02*
X82064Y-72030D01*
X82007Y-72142D02*
X82007Y-71906D01*
X82097Y-71906D01*
X82120Y-71917D01*
X82131Y-71929D01*
X82142Y-71951D01*
X82142Y-71985D01*
X82131Y-72007D01*
X82120Y-72019D01*
X82097Y-72030D01*
X82007Y-72030D01*
X87182Y-71079D02*
X86946Y-71079D01*
X86946Y-71023D01*
X86957Y-70989D01*
X86979Y-70967D01*
X87002Y-70956D01*
X87047Y-70944D01*
X87080Y-70944D01*
X87125Y-70956D01*
X87148Y-70967D01*
X87170Y-70989D01*
X87182Y-71023D01*
X87182Y-71079D01*
X86968Y-70854D02*
X86957Y-70843D01*
X86946Y-70821D01*
X86946Y-70764D01*
X86957Y-70742D01*
X86968Y-70731D01*
X86991Y-70719D01*
X87013Y-70719D01*
X87047Y-70731D01*
X87182Y-70866D01*
X87182Y-70719D01*
X87694Y-70781D02*
X87694Y-70894D01*
X87457Y-70894D01*
X87570Y-70703D02*
X87570Y-70624D01*
X87694Y-70590D02*
X87694Y-70703D01*
X87457Y-70703D01*
X87457Y-70590D01*
X87694Y-70489D02*
X87457Y-70489D01*
X87457Y-70433D01*
X87469Y-70399D01*
X87491Y-70376D01*
X87514Y-70365D01*
X87559Y-70354D01*
X87592Y-70354D01*
X87637Y-70365D01*
X87660Y-70376D01*
X87682Y-70399D01*
X87694Y-70433D01*
X87694Y-70489D01*
X88543Y-70781D02*
X88532Y-70793D01*
X88498Y-70804D01*
X88475Y-70804D01*
X88442Y-70793D01*
X88419Y-70770D01*
X88408Y-70748D01*
X88397Y-70703D01*
X88397Y-70669D01*
X88408Y-70624D01*
X88419Y-70601D01*
X88442Y-70579D01*
X88475Y-70568D01*
X88498Y-70568D01*
X88532Y-70579D01*
X88543Y-70590D01*
X88622Y-70568D02*
X88779Y-70568D01*
X88678Y-70804D01*
X88256Y-70017D02*
X88279Y-70017D01*
X88301Y-70028D01*
X88313Y-70039D01*
X88324Y-70062D01*
X88335Y-70107D01*
X88335Y-70163D01*
X88324Y-70208D01*
X88313Y-70230D01*
X88301Y-70242D01*
X88279Y-70253D01*
X88256Y-70253D01*
X88234Y-70242D01*
X88223Y-70230D01*
X88211Y-70208D01*
X88200Y-70163D01*
X88200Y-70107D01*
X88211Y-70062D01*
X88223Y-70039D01*
X88234Y-70028D01*
X88256Y-70017D01*
X88436Y-70230D02*
X88448Y-70242D01*
X88436Y-70253D01*
X88425Y-70242D01*
X88436Y-70230D01*
X88436Y-70253D01*
X88673Y-70253D02*
X88538Y-70253D01*
X88605Y-70253D02*
X88605Y-70017D01*
X88583Y-70050D01*
X88560Y-70073D01*
X88538Y-70084D01*
X88875Y-70095D02*
X88875Y-70253D01*
X88774Y-70095D02*
X88774Y-70219D01*
X88785Y-70242D01*
X88808Y-70253D01*
X88841Y-70253D01*
X88864Y-70242D01*
X88875Y-70230D01*
X87800Y-74010D02*
X87789Y-74021D01*
X87755Y-74032D01*
X87733Y-74032D01*
X87699Y-74021D01*
X87677Y-73998D01*
X87665Y-73976D01*
X87654Y-73931D01*
X87654Y-73897D01*
X87665Y-73852D01*
X87677Y-73830D01*
X87699Y-73807D01*
X87733Y-73796D01*
X87755Y-73796D01*
X87789Y-73807D01*
X87800Y-73818D01*
X88025Y-74032D02*
X87890Y-74032D01*
X87958Y-74032D02*
X87958Y-73796D01*
X87935Y-73830D01*
X87913Y-73852D01*
X87890Y-73863D01*
X88104Y-73796D02*
X88250Y-73796D01*
X88172Y-73886D01*
X88205Y-73886D01*
X88228Y-73897D01*
X88239Y-73908D01*
X88250Y-73931D01*
X88250Y-73987D01*
X88239Y-74010D01*
X88228Y-74021D01*
X88205Y-74032D01*
X88138Y-74032D01*
X88115Y-74021D01*
X88104Y-74010D01*
X87705Y-74071D02*
X87727Y-74071D01*
X87750Y-74083D01*
X87761Y-74094D01*
X87772Y-74116D01*
X87784Y-74161D01*
X87784Y-74218D01*
X87772Y-74263D01*
X87761Y-74285D01*
X87750Y-74296D01*
X87727Y-74308D01*
X87705Y-74308D01*
X87682Y-74296D01*
X87671Y-74285D01*
X87660Y-74263D01*
X87649Y-74218D01*
X87649Y-74161D01*
X87660Y-74116D01*
X87671Y-74094D01*
X87682Y-74083D01*
X87705Y-74071D01*
X87885Y-74285D02*
X87896Y-74296D01*
X87885Y-74308D01*
X87874Y-74296D01*
X87885Y-74285D01*
X87885Y-74308D01*
X88121Y-74308D02*
X87986Y-74308D01*
X88053Y-74308D02*
X88053Y-74071D01*
X88031Y-74105D01*
X88008Y-74128D01*
X87986Y-74139D01*
X88323Y-74150D02*
X88323Y-74308D01*
X88222Y-74150D02*
X88222Y-74274D01*
X88233Y-74296D01*
X88256Y-74308D01*
X88290Y-74308D01*
X88312Y-74296D01*
X88323Y-74285D01*
X81580Y-71293D02*
X81569Y-71304D01*
X81535Y-71316D01*
X81512Y-71316D01*
X81479Y-71304D01*
X81456Y-71282D01*
X81445Y-71259D01*
X81434Y-71214D01*
X81434Y-71181D01*
X81445Y-71136D01*
X81456Y-71113D01*
X81479Y-71091D01*
X81512Y-71079D01*
X81535Y-71079D01*
X81569Y-71091D01*
X81580Y-71102D01*
X81805Y-71316D02*
X81670Y-71316D01*
X81737Y-71316D02*
X81737Y-71079D01*
X81715Y-71113D01*
X81692Y-71136D01*
X81670Y-71147D01*
X82007Y-71158D02*
X82007Y-71316D01*
X81951Y-71068D02*
X81895Y-71237D01*
X82041Y-71237D01*
X81721Y-71473D02*
X81743Y-71473D01*
X81766Y-71484D01*
X81777Y-71496D01*
X81788Y-71518D01*
X81799Y-71563D01*
X81799Y-71619D01*
X81788Y-71664D01*
X81777Y-71687D01*
X81766Y-71698D01*
X81743Y-71709D01*
X81721Y-71709D01*
X81698Y-71698D01*
X81687Y-71687D01*
X81676Y-71664D01*
X81664Y-71619D01*
X81664Y-71563D01*
X81676Y-71518D01*
X81687Y-71496D01*
X81698Y-71484D01*
X81721Y-71473D01*
X81901Y-71687D02*
X81912Y-71698D01*
X81901Y-71709D01*
X81889Y-71698D01*
X81901Y-71687D01*
X81901Y-71709D01*
X82137Y-71709D02*
X82002Y-71709D01*
X82069Y-71709D02*
X82069Y-71473D01*
X82047Y-71507D01*
X82024Y-71529D01*
X82002Y-71541D01*
X82339Y-71552D02*
X82339Y-71709D01*
X82238Y-71552D02*
X82238Y-71676D01*
X82249Y-71698D01*
X82272Y-71709D01*
X82305Y-71709D01*
X82328Y-71698D01*
X82339Y-71687D01*
X81529Y-73852D02*
X81541Y-73863D01*
X81552Y-73897D01*
X81552Y-73920D01*
X81541Y-73953D01*
X81518Y-73976D01*
X81496Y-73987D01*
X81451Y-73998D01*
X81417Y-73998D01*
X81372Y-73987D01*
X81349Y-73976D01*
X81327Y-73953D01*
X81316Y-73920D01*
X81316Y-73897D01*
X81327Y-73863D01*
X81338Y-73852D01*
X81552Y-73627D02*
X81552Y-73762D01*
X81552Y-73695D02*
X81316Y-73695D01*
X81349Y-73717D01*
X81372Y-73740D01*
X81383Y-73762D01*
X81316Y-73425D02*
X81316Y-73470D01*
X81327Y-73492D01*
X81338Y-73503D01*
X81372Y-73526D01*
X81417Y-73537D01*
X81507Y-73537D01*
X81529Y-73526D01*
X81541Y-73515D01*
X81552Y-73492D01*
X81552Y-73447D01*
X81541Y-73425D01*
X81529Y-73413D01*
X81507Y-73402D01*
X81451Y-73402D01*
X81428Y-73413D01*
X81417Y-73425D01*
X81406Y-73447D01*
X81406Y-73492D01*
X81417Y-73515D01*
X81428Y-73526D01*
X81451Y-73537D01*
X82890Y-73700D02*
X82890Y-73835D01*
X82890Y-73768D02*
X82654Y-73768D01*
X82688Y-73790D01*
X82710Y-73813D01*
X82722Y-73835D01*
X82733Y-73498D02*
X82890Y-73498D01*
X82733Y-73599D02*
X82857Y-73599D01*
X82879Y-73588D01*
X82890Y-73565D01*
X82890Y-73532D01*
X82879Y-73509D01*
X82868Y-73498D01*
X82159Y-73852D02*
X82170Y-73863D01*
X82182Y-73897D01*
X82182Y-73920D01*
X82170Y-73953D01*
X82148Y-73976D01*
X82125Y-73987D01*
X82080Y-73998D01*
X82047Y-73998D01*
X82002Y-73987D01*
X81979Y-73976D01*
X81957Y-73953D01*
X81946Y-73920D01*
X81946Y-73897D01*
X81957Y-73863D01*
X81968Y-73852D01*
X82182Y-73627D02*
X82182Y-73762D01*
X82182Y-73695D02*
X81946Y-73695D01*
X81979Y-73717D01*
X82002Y-73740D01*
X82013Y-73762D01*
X81946Y-73413D02*
X81946Y-73526D01*
X82058Y-73537D01*
X82047Y-73526D01*
X82035Y-73503D01*
X82035Y-73447D01*
X82047Y-73425D01*
X82058Y-73413D01*
X82080Y-73402D01*
X82137Y-73402D01*
X82159Y-73413D01*
X82170Y-73425D01*
X82182Y-73447D01*
X82182Y-73503D01*
X82170Y-73526D01*
X82159Y-73537D01*
X83127Y-74088D02*
X83127Y-74223D01*
X83127Y-74156D02*
X82890Y-74156D01*
X82924Y-74178D01*
X82947Y-74201D01*
X82958Y-74223D01*
X82890Y-73942D02*
X82890Y-73920D01*
X82902Y-73897D01*
X82913Y-73886D01*
X82935Y-73875D01*
X82980Y-73863D01*
X83037Y-73863D01*
X83082Y-73875D01*
X83104Y-73886D01*
X83115Y-73897D01*
X83127Y-73920D01*
X83127Y-73942D01*
X83115Y-73965D01*
X83104Y-73976D01*
X83082Y-73987D01*
X83037Y-73998D01*
X82980Y-73998D01*
X82935Y-73987D01*
X82913Y-73976D01*
X82902Y-73965D01*
X82890Y-73942D01*
X82969Y-73762D02*
X83127Y-73762D01*
X82992Y-73762D02*
X82980Y-73751D01*
X82969Y-73728D01*
X82969Y-73695D01*
X82980Y-73672D01*
X83003Y-73661D01*
X83127Y-73661D01*
X92328Y-73186D02*
X92340Y-73197D01*
X92351Y-73231D01*
X92351Y-73253D01*
X92340Y-73287D01*
X92317Y-73310D01*
X92295Y-73321D01*
X92250Y-73332D01*
X92216Y-73332D01*
X92171Y-73321D01*
X92148Y-73310D01*
X92126Y-73287D01*
X92115Y-73253D01*
X92115Y-73231D01*
X92126Y-73197D01*
X92137Y-73186D01*
X92351Y-72961D02*
X92351Y-73096D01*
X92351Y-73028D02*
X92115Y-73028D01*
X92148Y-73051D01*
X92171Y-73073D01*
X92182Y-73096D01*
X92115Y-72815D02*
X92115Y-72792D01*
X92126Y-72770D01*
X92137Y-72758D01*
X92160Y-72747D01*
X92205Y-72736D01*
X92261Y-72736D01*
X92306Y-72747D01*
X92328Y-72758D01*
X92340Y-72770D01*
X92351Y-72792D01*
X92351Y-72815D01*
X92340Y-72837D01*
X92328Y-72848D01*
X92306Y-72860D01*
X92261Y-72871D01*
X92205Y-72871D01*
X92160Y-72860D01*
X92137Y-72848D01*
X92126Y-72837D01*
X92115Y-72815D01*
X91597Y-73953D02*
X91462Y-73953D01*
X91529Y-73953D02*
X91529Y-73717D01*
X91507Y-73751D01*
X91484Y-73773D01*
X91462Y-73785D01*
X91743Y-73717D02*
X91766Y-73717D01*
X91788Y-73728D01*
X91799Y-73740D01*
X91811Y-73762D01*
X91822Y-73807D01*
X91822Y-73863D01*
X91811Y-73908D01*
X91799Y-73931D01*
X91788Y-73942D01*
X91766Y-73953D01*
X91743Y-73953D01*
X91721Y-73942D01*
X91709Y-73931D01*
X91698Y-73908D01*
X91687Y-73863D01*
X91687Y-73807D01*
X91698Y-73762D01*
X91709Y-73740D01*
X91721Y-73728D01*
X91743Y-73717D01*
X91923Y-73796D02*
X91923Y-74032D01*
X91923Y-73807D02*
X91946Y-73796D01*
X91991Y-73796D01*
X92013Y-73807D01*
X92024Y-73818D01*
X92035Y-73841D01*
X92035Y-73908D01*
X92024Y-73931D01*
X92013Y-73942D01*
X91991Y-73953D01*
X91946Y-73953D01*
X91923Y-73942D01*
X92215Y-73830D02*
X92137Y-73830D01*
X92137Y-73953D02*
X92137Y-73717D01*
X92249Y-73717D01*
X89124Y-73123D02*
X89135Y-73135D01*
X89146Y-73168D01*
X89146Y-73191D01*
X89135Y-73225D01*
X89112Y-73247D01*
X89090Y-73258D01*
X89045Y-73270D01*
X89011Y-73270D01*
X88966Y-73258D01*
X88944Y-73247D01*
X88921Y-73225D01*
X88910Y-73191D01*
X88910Y-73168D01*
X88921Y-73135D01*
X88932Y-73123D01*
X89146Y-73011D02*
X89146Y-72966D01*
X89135Y-72943D01*
X89124Y-72932D01*
X89090Y-72910D01*
X89045Y-72898D01*
X88955Y-72898D01*
X88932Y-72910D01*
X88921Y-72921D01*
X88910Y-72943D01*
X88910Y-72988D01*
X88921Y-73011D01*
X88932Y-73022D01*
X88955Y-73033D01*
X89011Y-73033D01*
X89034Y-73022D01*
X89045Y-73011D01*
X89056Y-72988D01*
X89056Y-72943D01*
X89045Y-72921D01*
X89034Y-72910D01*
X89011Y-72898D01*
X88998Y-73953D02*
X88863Y-73953D01*
X88931Y-73953D02*
X88931Y-73717D01*
X88908Y-73751D01*
X88886Y-73773D01*
X88863Y-73785D01*
X89145Y-73717D02*
X89167Y-73717D01*
X89190Y-73728D01*
X89201Y-73740D01*
X89212Y-73762D01*
X89223Y-73807D01*
X89223Y-73863D01*
X89212Y-73908D01*
X89201Y-73931D01*
X89190Y-73942D01*
X89167Y-73953D01*
X89145Y-73953D01*
X89122Y-73942D01*
X89111Y-73931D01*
X89100Y-73908D01*
X89088Y-73863D01*
X89088Y-73807D01*
X89100Y-73762D01*
X89111Y-73740D01*
X89122Y-73728D01*
X89145Y-73717D01*
X89325Y-73796D02*
X89325Y-74032D01*
X89325Y-73807D02*
X89347Y-73796D01*
X89392Y-73796D01*
X89415Y-73807D01*
X89426Y-73818D01*
X89437Y-73841D01*
X89437Y-73908D01*
X89426Y-73931D01*
X89415Y-73942D01*
X89392Y-73953D01*
X89347Y-73953D01*
X89325Y-73942D01*
X89617Y-73830D02*
X89538Y-73830D01*
X89538Y-73953D02*
X89538Y-73717D01*
X89651Y-73717D01*
X90073Y-69055D02*
X90084Y-69066D01*
X90095Y-69100D01*
X90095Y-69122D01*
X90084Y-69156D01*
X90061Y-69178D01*
X90039Y-69190D01*
X89994Y-69201D01*
X89960Y-69201D01*
X89915Y-69190D01*
X89893Y-69178D01*
X89870Y-69156D01*
X89859Y-69122D01*
X89859Y-69100D01*
X89870Y-69066D01*
X89881Y-69055D01*
X89960Y-68920D02*
X89949Y-68942D01*
X89938Y-68953D01*
X89915Y-68965D01*
X89904Y-68965D01*
X89881Y-68953D01*
X89870Y-68942D01*
X89859Y-68920D01*
X89859Y-68875D01*
X89870Y-68852D01*
X89881Y-68841D01*
X89904Y-68830D01*
X89915Y-68830D01*
X89938Y-68841D01*
X89949Y-68852D01*
X89960Y-68875D01*
X89960Y-68920D01*
X89971Y-68942D01*
X89983Y-68953D01*
X90005Y-68965D01*
X90050Y-68965D01*
X90073Y-68953D01*
X90084Y-68942D01*
X90095Y-68920D01*
X90095Y-68875D01*
X90084Y-68852D01*
X90073Y-68841D01*
X90050Y-68830D01*
X90005Y-68830D01*
X89983Y-68841D01*
X89971Y-68852D01*
X89960Y-68875D01*
X88503Y-69280D02*
X88492Y-69268D01*
X88481Y-69246D01*
X88481Y-69190D01*
X88492Y-69167D01*
X88503Y-69156D01*
X88526Y-69145D01*
X88548Y-69145D01*
X88582Y-69156D01*
X88717Y-69291D01*
X88717Y-69145D01*
X88503Y-69055D02*
X88492Y-69043D01*
X88481Y-69021D01*
X88481Y-68965D01*
X88492Y-68942D01*
X88503Y-68931D01*
X88526Y-68920D01*
X88548Y-68920D01*
X88582Y-68931D01*
X88717Y-69066D01*
X88717Y-68920D01*
X88481Y-68773D02*
X88481Y-68751D01*
X88492Y-68728D01*
X88503Y-68717D01*
X88526Y-68706D01*
X88571Y-68695D01*
X88627Y-68695D01*
X88672Y-68706D01*
X88695Y-68717D01*
X88706Y-68728D01*
X88717Y-68751D01*
X88717Y-68773D01*
X88706Y-68796D01*
X88695Y-68807D01*
X88672Y-68818D01*
X88627Y-68830D01*
X88571Y-68830D01*
X88526Y-68818D01*
X88503Y-68807D01*
X88492Y-68796D01*
X88481Y-68773D01*
X88560Y-68593D02*
X88796Y-68593D01*
X88571Y-68593D02*
X88560Y-68571D01*
X88560Y-68526D01*
X88571Y-68503D01*
X88582Y-68492D01*
X88605Y-68481D01*
X88672Y-68481D01*
X88695Y-68492D01*
X88706Y-68503D01*
X88717Y-68526D01*
X88717Y-68571D01*
X88706Y-68593D01*
X88593Y-68301D02*
X88593Y-68380D01*
X88717Y-68380D02*
X88481Y-68380D01*
X88481Y-68267D01*
X89527Y-72041D02*
X89516Y-72052D01*
X89482Y-72064D01*
X89460Y-72064D01*
X89426Y-72052D01*
X89403Y-72030D01*
X89392Y-72007D01*
X89381Y-71962D01*
X89381Y-71929D01*
X89392Y-71884D01*
X89403Y-71861D01*
X89426Y-71839D01*
X89460Y-71827D01*
X89482Y-71827D01*
X89516Y-71839D01*
X89527Y-71850D01*
X89730Y-71827D02*
X89685Y-71827D01*
X89662Y-71839D01*
X89651Y-71850D01*
X89628Y-71884D01*
X89617Y-71929D01*
X89617Y-72019D01*
X89628Y-72041D01*
X89640Y-72052D01*
X89662Y-72064D01*
X89707Y-72064D01*
X89730Y-72052D01*
X89741Y-72041D01*
X89752Y-72019D01*
X89752Y-71962D01*
X89741Y-71940D01*
X89730Y-71929D01*
X89707Y-71917D01*
X89662Y-71917D01*
X89640Y-71929D01*
X89628Y-71940D01*
X89617Y-71962D01*
X89454Y-71670D02*
X89319Y-71670D01*
X89386Y-71670D02*
X89386Y-71434D01*
X89364Y-71467D01*
X89341Y-71490D01*
X89319Y-71501D01*
X89600Y-71434D02*
X89623Y-71434D01*
X89645Y-71445D01*
X89656Y-71456D01*
X89668Y-71479D01*
X89679Y-71524D01*
X89679Y-71580D01*
X89668Y-71625D01*
X89656Y-71647D01*
X89645Y-71659D01*
X89623Y-71670D01*
X89600Y-71670D01*
X89578Y-71659D01*
X89566Y-71647D01*
X89555Y-71625D01*
X89544Y-71580D01*
X89544Y-71524D01*
X89555Y-71479D01*
X89566Y-71456D01*
X89578Y-71445D01*
X89600Y-71434D01*
X89780Y-71512D02*
X89780Y-71670D01*
X89780Y-71535D02*
X89791Y-71524D01*
X89814Y-71512D01*
X89848Y-71512D01*
X89870Y-71524D01*
X89881Y-71546D01*
X89881Y-71670D01*
X82907Y-69797D02*
X82919Y-69808D01*
X82930Y-69842D01*
X82930Y-69865D01*
X82919Y-69898D01*
X82896Y-69921D01*
X82874Y-69932D01*
X82829Y-69943D01*
X82795Y-69943D01*
X82750Y-69932D01*
X82727Y-69921D01*
X82705Y-69898D01*
X82694Y-69865D01*
X82694Y-69842D01*
X82705Y-69808D01*
X82716Y-69797D01*
X82716Y-69707D02*
X82705Y-69696D01*
X82694Y-69673D01*
X82694Y-69617D01*
X82705Y-69595D01*
X82716Y-69583D01*
X82739Y-69572D01*
X82761Y-69572D01*
X82795Y-69583D01*
X82930Y-69718D01*
X82930Y-69572D01*
X82930Y-69347D02*
X82930Y-69482D01*
X82930Y-69415D02*
X82694Y-69415D01*
X82727Y-69437D01*
X82750Y-69460D01*
X82761Y-69482D01*
X82615Y-69803D02*
X82615Y-69938D01*
X82615Y-69870D02*
X82379Y-69870D01*
X82412Y-69893D01*
X82435Y-69915D01*
X82446Y-69938D01*
X82457Y-69600D02*
X82615Y-69600D01*
X82457Y-69701D02*
X82581Y-69701D01*
X82604Y-69690D01*
X82615Y-69668D01*
X82615Y-69634D01*
X82604Y-69611D01*
X82592Y-69600D01*
X92750Y-72204D02*
X92761Y-72215D01*
X92772Y-72249D01*
X92772Y-72272D01*
X92761Y-72305D01*
X92739Y-72328D01*
X92716Y-72339D01*
X92671Y-72350D01*
X92637Y-72350D01*
X92592Y-72339D01*
X92570Y-72328D01*
X92547Y-72305D01*
X92536Y-72272D01*
X92536Y-72249D01*
X92547Y-72215D01*
X92559Y-72204D01*
X92536Y-71991D02*
X92536Y-72103D01*
X92649Y-72114D01*
X92637Y-72103D01*
X92626Y-72080D01*
X92626Y-72024D01*
X92637Y-72002D01*
X92649Y-71991D01*
X92671Y-71979D01*
X92727Y-71979D01*
X92750Y-71991D01*
X92761Y-72002D01*
X92772Y-72024D01*
X92772Y-72080D01*
X92761Y-72103D01*
X92750Y-72114D01*
X92182Y-72424D02*
X92182Y-72277D01*
X92272Y-72356D01*
X92272Y-72322D01*
X92283Y-72300D01*
X92294Y-72289D01*
X92317Y-72277D01*
X92373Y-72277D01*
X92395Y-72289D01*
X92407Y-72300D01*
X92418Y-72322D01*
X92418Y-72390D01*
X92407Y-72412D01*
X92395Y-72424D01*
X92395Y-72176D02*
X92407Y-72165D01*
X92418Y-72176D01*
X92407Y-72187D01*
X92395Y-72176D01*
X92418Y-72176D01*
X92182Y-72086D02*
X92182Y-71940D01*
X92272Y-72019D01*
X92272Y-71985D01*
X92283Y-71962D01*
X92294Y-71951D01*
X92317Y-71940D01*
X92373Y-71940D01*
X92395Y-71951D01*
X92407Y-71962D01*
X92418Y-71985D01*
X92418Y-72052D01*
X92407Y-72075D01*
X92395Y-72086D01*
X92260Y-71839D02*
X92497Y-71839D01*
X92272Y-71839D02*
X92260Y-71816D01*
X92260Y-71771D01*
X92272Y-71749D01*
X92283Y-71737D01*
X92305Y-71726D01*
X92373Y-71726D01*
X92395Y-71737D01*
X92407Y-71749D01*
X92418Y-71771D01*
X92418Y-71816D01*
X92407Y-71839D01*
X92294Y-71546D02*
X92294Y-71625D01*
X92418Y-71625D02*
X92182Y-71625D01*
X92182Y-71512D01*
X91771Y-69836D02*
X91760Y-69848D01*
X91726Y-69859D01*
X91704Y-69859D01*
X91670Y-69848D01*
X91647Y-69825D01*
X91636Y-69803D01*
X91625Y-69758D01*
X91625Y-69724D01*
X91636Y-69679D01*
X91647Y-69656D01*
X91670Y-69634D01*
X91704Y-69623D01*
X91726Y-69623D01*
X91760Y-69634D01*
X91771Y-69645D01*
X91974Y-69701D02*
X91974Y-69859D01*
X91917Y-69611D02*
X91861Y-69780D01*
X92007Y-69780D01*
X92615Y-68655D02*
X92615Y-68790D01*
X92615Y-68723D02*
X92379Y-68723D01*
X92412Y-68745D01*
X92435Y-68768D01*
X92446Y-68790D01*
X92379Y-68509D02*
X92379Y-68487D01*
X92390Y-68464D01*
X92401Y-68453D01*
X92424Y-68442D01*
X92469Y-68430D01*
X92525Y-68430D01*
X92570Y-68442D01*
X92592Y-68453D01*
X92604Y-68464D01*
X92615Y-68487D01*
X92615Y-68509D01*
X92604Y-68532D01*
X92592Y-68543D01*
X92570Y-68554D01*
X92525Y-68565D01*
X92469Y-68565D01*
X92424Y-68554D01*
X92401Y-68543D01*
X92390Y-68532D01*
X92379Y-68509D01*
X92457Y-68329D02*
X92615Y-68329D01*
X92480Y-68329D02*
X92469Y-68318D01*
X92457Y-68295D01*
X92457Y-68262D01*
X92469Y-68239D01*
X92491Y-68228D01*
X92615Y-68228D01*
X91293Y-68897D02*
X91304Y-68908D01*
X91316Y-68942D01*
X91316Y-68965D01*
X91304Y-68998D01*
X91282Y-69021D01*
X91259Y-69032D01*
X91214Y-69043D01*
X91181Y-69043D01*
X91136Y-69032D01*
X91113Y-69021D01*
X91091Y-68998D01*
X91079Y-68965D01*
X91079Y-68942D01*
X91091Y-68908D01*
X91102Y-68897D01*
X91079Y-68818D02*
X91079Y-68672D01*
X91169Y-68751D01*
X91169Y-68717D01*
X91181Y-68695D01*
X91192Y-68683D01*
X91214Y-68672D01*
X91271Y-68672D01*
X91293Y-68683D01*
X91304Y-68695D01*
X91316Y-68717D01*
X91316Y-68785D01*
X91304Y-68807D01*
X91293Y-68818D01*
X89133Y-69201D02*
X89122Y-69190D01*
X89111Y-69167D01*
X89111Y-69111D01*
X89122Y-69088D01*
X89133Y-69077D01*
X89156Y-69066D01*
X89178Y-69066D01*
X89212Y-69077D01*
X89347Y-69212D01*
X89347Y-69066D01*
X89133Y-68976D02*
X89122Y-68965D01*
X89111Y-68942D01*
X89111Y-68886D01*
X89122Y-68863D01*
X89133Y-68852D01*
X89156Y-68841D01*
X89178Y-68841D01*
X89212Y-68852D01*
X89347Y-68987D01*
X89347Y-68841D01*
X89111Y-68695D02*
X89111Y-68672D01*
X89122Y-68650D01*
X89133Y-68638D01*
X89156Y-68627D01*
X89201Y-68616D01*
X89257Y-68616D01*
X89302Y-68627D01*
X89325Y-68638D01*
X89336Y-68650D01*
X89347Y-68672D01*
X89347Y-68695D01*
X89336Y-68717D01*
X89325Y-68728D01*
X89302Y-68740D01*
X89257Y-68751D01*
X89201Y-68751D01*
X89156Y-68740D01*
X89133Y-68728D01*
X89122Y-68717D01*
X89111Y-68695D01*
X89190Y-68515D02*
X89426Y-68515D01*
X89201Y-68515D02*
X89190Y-68492D01*
X89190Y-68447D01*
X89201Y-68425D01*
X89212Y-68413D01*
X89235Y-68402D01*
X89302Y-68402D01*
X89325Y-68413D01*
X89336Y-68425D01*
X89347Y-68447D01*
X89347Y-68492D01*
X89336Y-68515D01*
X89223Y-68222D02*
X89223Y-68301D01*
X89347Y-68301D02*
X89111Y-68301D01*
X89111Y-68188D01*
X88430Y-71451D02*
X88419Y-71462D01*
X88385Y-71473D01*
X88363Y-71473D01*
X88329Y-71462D01*
X88307Y-71439D01*
X88295Y-71417D01*
X88284Y-71372D01*
X88284Y-71338D01*
X88295Y-71293D01*
X88307Y-71271D01*
X88329Y-71248D01*
X88363Y-71237D01*
X88385Y-71237D01*
X88419Y-71248D01*
X88430Y-71259D01*
X88655Y-71473D02*
X88520Y-71473D01*
X88588Y-71473D02*
X88588Y-71237D01*
X88565Y-71271D01*
X88543Y-71293D01*
X88520Y-71304D01*
X88880Y-71473D02*
X88745Y-71473D01*
X88813Y-71473D02*
X88813Y-71237D01*
X88790Y-71271D01*
X88768Y-71293D01*
X88745Y-71304D01*
X88256Y-71709D02*
X88278Y-71709D01*
X88301Y-71721D01*
X88312Y-71732D01*
X88323Y-71754D01*
X88335Y-71799D01*
X88335Y-71856D01*
X88323Y-71901D01*
X88312Y-71923D01*
X88301Y-71934D01*
X88278Y-71946D01*
X88256Y-71946D01*
X88233Y-71934D01*
X88222Y-71923D01*
X88211Y-71901D01*
X88200Y-71856D01*
X88200Y-71799D01*
X88211Y-71754D01*
X88222Y-71732D01*
X88233Y-71721D01*
X88256Y-71709D01*
X88436Y-71923D02*
X88447Y-71934D01*
X88436Y-71946D01*
X88425Y-71934D01*
X88436Y-71923D01*
X88436Y-71946D01*
X88672Y-71946D02*
X88537Y-71946D01*
X88605Y-71946D02*
X88605Y-71709D01*
X88582Y-71743D01*
X88560Y-71766D01*
X88537Y-71777D01*
X88875Y-71788D02*
X88875Y-71946D01*
X88773Y-71788D02*
X88773Y-71912D01*
X88785Y-71934D01*
X88807Y-71946D01*
X88841Y-71946D01*
X88863Y-71934D01*
X88875Y-71923D01*
X85202Y-69561D02*
X85191Y-69572D01*
X85157Y-69583D01*
X85134Y-69583D01*
X85101Y-69572D01*
X85078Y-69550D01*
X85067Y-69527D01*
X85056Y-69482D01*
X85056Y-69448D01*
X85067Y-69403D01*
X85078Y-69381D01*
X85101Y-69358D01*
X85134Y-69347D01*
X85157Y-69347D01*
X85191Y-69358D01*
X85202Y-69370D01*
X85427Y-69583D02*
X85292Y-69583D01*
X85359Y-69583D02*
X85359Y-69347D01*
X85337Y-69381D01*
X85314Y-69403D01*
X85292Y-69415D01*
X85562Y-69448D02*
X85539Y-69437D01*
X85528Y-69426D01*
X85517Y-69403D01*
X85517Y-69392D01*
X85528Y-69370D01*
X85539Y-69358D01*
X85562Y-69347D01*
X85607Y-69347D01*
X85629Y-69358D01*
X85641Y-69370D01*
X85652Y-69392D01*
X85652Y-69403D01*
X85641Y-69426D01*
X85629Y-69437D01*
X85607Y-69448D01*
X85562Y-69448D01*
X85539Y-69460D01*
X85528Y-69471D01*
X85517Y-69493D01*
X85517Y-69538D01*
X85528Y-69561D01*
X85539Y-69572D01*
X85562Y-69583D01*
X85607Y-69583D01*
X85629Y-69572D01*
X85641Y-69561D01*
X85652Y-69538D01*
X85652Y-69493D01*
X85641Y-69471D01*
X85629Y-69460D01*
X85607Y-69448D01*
X85146Y-69701D02*
X85168Y-69701D01*
X85191Y-69713D01*
X85202Y-69724D01*
X85213Y-69746D01*
X85224Y-69791D01*
X85224Y-69848D01*
X85213Y-69893D01*
X85202Y-69915D01*
X85191Y-69926D01*
X85168Y-69938D01*
X85146Y-69938D01*
X85123Y-69926D01*
X85112Y-69915D01*
X85101Y-69893D01*
X85089Y-69848D01*
X85089Y-69791D01*
X85101Y-69746D01*
X85112Y-69724D01*
X85123Y-69713D01*
X85146Y-69701D01*
X85326Y-69915D02*
X85337Y-69926D01*
X85326Y-69938D01*
X85314Y-69926D01*
X85326Y-69915D01*
X85326Y-69938D01*
X85562Y-69938D02*
X85427Y-69938D01*
X85494Y-69938D02*
X85494Y-69701D01*
X85472Y-69735D01*
X85449Y-69758D01*
X85427Y-69769D01*
X85764Y-69780D02*
X85764Y-69938D01*
X85663Y-69780D02*
X85663Y-69904D01*
X85674Y-69926D01*
X85697Y-69938D01*
X85731Y-69938D01*
X85753Y-69926D01*
X85764Y-69915D01*
X87182Y-72615D02*
X86946Y-72615D01*
X86946Y-72559D01*
X86957Y-72525D01*
X86979Y-72502D01*
X87002Y-72491D01*
X87047Y-72480D01*
X87080Y-72480D01*
X87125Y-72491D01*
X87148Y-72502D01*
X87170Y-72525D01*
X87182Y-72559D01*
X87182Y-72615D01*
X87182Y-72255D02*
X87182Y-72390D01*
X87182Y-72322D02*
X86946Y-72322D01*
X86979Y-72345D01*
X87002Y-72367D01*
X87013Y-72390D01*
X87654Y-72317D02*
X87654Y-72429D01*
X87418Y-72429D01*
X87530Y-72238D02*
X87530Y-72159D01*
X87654Y-72125D02*
X87654Y-72238D01*
X87418Y-72238D01*
X87418Y-72125D01*
X87654Y-72024D02*
X87418Y-72024D01*
X87418Y-71968D01*
X87429Y-71934D01*
X87452Y-71912D01*
X87474Y-71901D01*
X87519Y-71889D01*
X87553Y-71889D01*
X87598Y-71901D01*
X87620Y-71912D01*
X87643Y-71934D01*
X87654Y-71968D01*
X87654Y-72024D01*
G54D14*
X76979Y-69654D02*
X77146Y-69904D01*
X77146Y-69654D02*
X76979Y-69904D01*
X77360Y-69904D02*
X77241Y-69904D01*
X77241Y-69654D01*
X77420Y-69654D02*
X77575Y-69654D01*
X77491Y-69749D01*
X77527Y-69749D01*
X77551Y-69761D01*
X77563Y-69773D01*
X77575Y-69797D01*
X77575Y-69856D01*
X77563Y-69880D01*
X77551Y-69892D01*
X77527Y-69904D01*
X77456Y-69904D01*
X77432Y-69892D01*
X77420Y-69880D01*
G54D15*
G54D14*
X76962Y-71032D02*
X76962Y-71234D01*
X76974Y-71258D01*
X76986Y-71270D01*
X77010Y-71282D01*
X77057Y-71282D01*
X77081Y-71270D01*
X77093Y-71258D01*
X77105Y-71234D01*
X77105Y-71032D01*
X77212Y-71270D02*
X77248Y-71282D01*
X77307Y-71282D01*
X77331Y-71270D01*
X77343Y-71258D01*
X77355Y-71234D01*
X77355Y-71210D01*
X77343Y-71187D01*
X77331Y-71175D01*
X77307Y-71163D01*
X77260Y-71151D01*
X77236Y-71139D01*
X77224Y-71127D01*
X77212Y-71103D01*
X77212Y-71079D01*
X77224Y-71056D01*
X77236Y-71044D01*
X77260Y-71032D01*
X77319Y-71032D01*
X77355Y-71044D01*
X77545Y-71151D02*
X77581Y-71163D01*
X77593Y-71175D01*
X77605Y-71198D01*
X77605Y-71234D01*
X77593Y-71258D01*
X77581Y-71270D01*
X77557Y-71282D01*
X77462Y-71282D01*
X77462Y-71032D01*
X77545Y-71032D01*
X77569Y-71044D01*
X77581Y-71056D01*
X77593Y-71079D01*
X77593Y-71103D01*
X77581Y-71127D01*
X77569Y-71139D01*
X77545Y-71151D01*
X77462Y-71151D01*
X77652Y-71306D02*
X77843Y-71306D01*
X77891Y-71210D02*
X78010Y-71210D01*
X77867Y-71282D02*
X77950Y-71032D01*
X78033Y-71282D01*
G54D15*
M02*
