G04 (created by PCBNEW (2013-07-07 BZR 4022)-stable) date 24/11/2014 17:48:06*
%MOIN*%
G04 Gerber Fmt 3.4, Leading zero omitted, Abs format*
%FSLAX34Y34*%
G01*
G70*
G90*
G04 APERTURE LIST*
%ADD10C,0.00590551*%
%ADD11R,0.0433071X0.0433071*%
%ADD12R,0.0590551X0.0590551*%
%ADD13C,0.0590551*%
%ADD14C,0.129921*%
%ADD15C,0.0511811*%
%ADD16C,0.0629921*%
%ADD17C,0.0354331*%
%ADD18C,0.019685*%
%ADD19C,0.00787402*%
%ADD20C,0.00984252*%
G04 APERTURE END LIST*
G54D10*
G54D11*
X90263Y-70255D03*
X90696Y-70255D03*
X90263Y-70688D03*
X90696Y-70688D03*
G54D12*
X84649Y-68661D03*
G54D13*
X83649Y-68661D03*
X82649Y-68661D03*
X81649Y-68661D03*
G54D12*
X87850Y-68661D03*
G54D13*
X86850Y-68661D03*
X85850Y-68661D03*
G54D14*
X77992Y-68897D03*
X77992Y-73622D03*
G54D15*
X78858Y-72637D03*
X78858Y-71653D03*
X78858Y-70866D03*
X78858Y-69881D03*
G54D16*
X77874Y-70354D03*
X77874Y-71968D03*
G54D17*
X91111Y-72008D03*
X92211Y-71595D03*
X91588Y-69129D03*
X88876Y-70309D03*
X89488Y-68860D03*
X86685Y-73606D03*
X81367Y-72989D03*
X83653Y-71843D03*
X83436Y-71040D03*
X83088Y-70304D03*
X88858Y-72448D03*
X83597Y-73382D03*
X88371Y-72616D03*
X83727Y-72935D03*
X88252Y-69824D03*
X84539Y-72045D03*
X89267Y-69863D03*
X84573Y-72719D03*
X88374Y-69310D03*
X84886Y-71729D03*
X89118Y-69414D03*
X84122Y-72670D03*
X85213Y-72707D03*
X86697Y-72531D03*
X85644Y-72431D03*
X87069Y-71913D03*
X84649Y-69524D03*
X85296Y-71026D03*
X86598Y-70637D03*
X86866Y-70222D03*
X84362Y-71557D03*
X84586Y-71142D03*
X87701Y-71338D03*
X92519Y-68503D03*
X88582Y-74015D03*
X89566Y-74015D03*
X90551Y-74015D03*
X91535Y-74015D03*
X92519Y-72047D03*
X92519Y-73031D03*
X92519Y-74015D03*
X93307Y-74015D03*
X93307Y-73031D03*
X93307Y-72047D03*
X93307Y-71062D03*
X92298Y-69698D03*
X93237Y-68408D03*
X93248Y-69704D03*
X89686Y-72163D03*
X81239Y-71827D03*
X79993Y-72635D03*
X82503Y-73930D03*
X84066Y-70000D03*
X83326Y-72184D03*
X87674Y-73644D03*
X85669Y-73385D03*
X85764Y-69520D03*
X92720Y-71017D03*
X85918Y-70767D03*
G54D18*
X89488Y-68860D02*
X91588Y-69129D01*
X87510Y-74038D02*
X86685Y-73606D01*
X87837Y-74038D02*
X87510Y-74038D01*
X88067Y-73808D02*
X87837Y-74038D01*
X89252Y-72612D02*
X88067Y-73808D01*
X89369Y-72489D02*
X89252Y-72612D01*
X85832Y-73779D02*
X86685Y-73606D01*
X85506Y-73779D02*
X85832Y-73779D01*
X83434Y-73776D02*
X85506Y-73779D01*
X83203Y-73545D02*
X83434Y-73776D01*
X83079Y-73163D02*
X83203Y-73545D01*
X89292Y-72326D02*
X89369Y-72489D01*
X88876Y-70309D02*
X89292Y-72326D01*
X91111Y-72008D02*
X92211Y-71595D01*
X83720Y-72021D02*
X83653Y-71843D01*
X83720Y-72348D02*
X83720Y-72021D01*
X83333Y-72772D02*
X83720Y-72348D01*
X83079Y-73163D02*
X83333Y-72772D01*
X83436Y-71040D02*
X83088Y-70304D01*
X81367Y-72989D02*
X83079Y-73163D01*
X89661Y-69700D02*
X89488Y-68860D01*
X89661Y-70027D02*
X89661Y-69700D01*
X89430Y-70257D02*
X89661Y-70027D01*
X88876Y-70309D02*
X89430Y-70257D01*
X89849Y-72557D02*
X91111Y-72008D01*
X89523Y-72557D02*
X89849Y-72557D01*
X89369Y-72489D02*
X89523Y-72557D01*
G54D19*
X85415Y-73196D02*
X83597Y-73382D01*
X85542Y-73078D02*
X85415Y-73196D01*
X85880Y-73078D02*
X85542Y-73078D01*
X86459Y-73009D02*
X85880Y-73078D01*
X86895Y-73009D02*
X86459Y-73009D01*
X88510Y-72951D02*
X86895Y-73009D01*
X88706Y-72755D02*
X88510Y-72951D01*
X88858Y-72448D02*
X88706Y-72755D01*
X83983Y-73005D02*
X83727Y-72935D01*
X84435Y-73053D02*
X83983Y-73005D01*
X84712Y-73053D02*
X84435Y-73053D01*
X85342Y-73021D02*
X84712Y-73053D01*
X85472Y-72908D02*
X85342Y-73021D01*
X85842Y-72908D02*
X85472Y-72908D01*
X86426Y-72839D02*
X85842Y-72908D01*
X86824Y-72839D02*
X86426Y-72839D01*
X88371Y-72616D02*
X86824Y-72839D01*
X84974Y-72043D02*
X84539Y-72045D01*
X85015Y-72043D02*
X84974Y-72043D01*
X85320Y-71757D02*
X85015Y-72043D01*
X85397Y-71725D02*
X85320Y-71757D01*
X86810Y-71168D02*
X85397Y-71725D01*
X86823Y-71163D02*
X86810Y-71168D01*
X88252Y-69824D02*
X86823Y-71163D01*
X85083Y-72394D02*
X84573Y-72719D01*
X85125Y-72394D02*
X85083Y-72394D01*
X85186Y-72368D02*
X85125Y-72394D01*
X85509Y-72104D02*
X85186Y-72368D01*
X86888Y-71562D02*
X85509Y-72104D01*
X87046Y-71497D02*
X86888Y-71562D01*
X88449Y-70301D02*
X87046Y-71497D01*
X88749Y-70002D02*
X88449Y-70301D01*
X89267Y-69863D02*
X88749Y-70002D01*
X85196Y-71571D02*
X84886Y-71729D01*
X85354Y-71505D02*
X85196Y-71571D01*
X86736Y-70971D02*
X85354Y-71505D01*
X86932Y-70775D02*
X86736Y-70971D01*
X87917Y-69686D02*
X86932Y-70775D01*
X88113Y-69490D02*
X87917Y-69686D01*
X88374Y-69310D02*
X88113Y-69490D01*
X84435Y-72384D02*
X84122Y-72670D01*
X84678Y-72380D02*
X84435Y-72384D01*
X85010Y-72218D02*
X84678Y-72380D01*
X85088Y-72218D02*
X85010Y-72218D01*
X85428Y-71917D02*
X85088Y-72218D01*
X85435Y-71914D02*
X85428Y-71917D01*
X86849Y-71365D02*
X85435Y-71914D01*
X86935Y-71330D02*
X86849Y-71365D01*
X88379Y-70132D02*
X86935Y-71330D01*
X88679Y-69832D02*
X88379Y-70132D01*
X89118Y-69414D02*
X88679Y-69832D01*
X85517Y-72738D02*
X85213Y-72707D01*
X85772Y-72738D02*
X85517Y-72738D01*
X86371Y-72562D02*
X85772Y-72738D01*
X86697Y-72531D02*
X86371Y-72562D01*
X85644Y-72431D02*
X87069Y-71913D01*
X84649Y-69524D02*
X83649Y-68661D01*
X83927Y-70335D02*
X85296Y-71026D01*
X81649Y-68661D02*
X83927Y-70335D01*
X85850Y-68661D02*
X86598Y-70637D01*
X86850Y-68661D02*
X86866Y-70222D01*
X83603Y-71510D02*
X84077Y-71485D01*
X83603Y-71510D02*
X83603Y-71510D01*
X83595Y-71510D02*
X83603Y-71510D01*
X83595Y-71510D02*
X83595Y-71510D01*
X83265Y-71510D02*
X83595Y-71510D01*
X83265Y-71510D02*
X83265Y-71510D01*
X83258Y-71510D02*
X83265Y-71510D01*
X83258Y-71510D02*
X83258Y-71510D01*
X79099Y-71299D02*
X83258Y-71510D01*
X84077Y-71485D02*
X84362Y-71557D01*
X78858Y-71653D02*
X79099Y-71299D01*
X83595Y-71372D02*
X84070Y-71347D01*
X83595Y-71372D02*
X83595Y-71372D01*
X83265Y-71372D02*
X83595Y-71372D01*
X83265Y-71372D02*
X83265Y-71372D01*
X79106Y-71161D02*
X83265Y-71372D01*
X78858Y-70865D02*
X79106Y-71161D01*
X84070Y-71347D02*
X84586Y-71142D01*
G54D18*
X88031Y-71668D02*
X88031Y-71692D01*
X87701Y-71338D02*
X88031Y-71668D01*
X92519Y-68503D02*
X92519Y-68700D01*
X89566Y-74015D02*
X88582Y-74015D01*
X91535Y-74015D02*
X90551Y-74015D01*
X92720Y-71017D02*
X93261Y-71017D01*
X92519Y-73031D02*
X92519Y-72047D01*
X93307Y-74015D02*
X92519Y-74015D01*
X93307Y-72047D02*
X93307Y-73031D01*
X93261Y-71017D02*
X93307Y-71062D01*
X81204Y-73382D02*
X79993Y-72635D01*
X82503Y-73930D02*
X81204Y-73382D01*
X84066Y-70000D02*
X82649Y-68661D01*
X90263Y-70807D02*
X90263Y-70688D01*
X90263Y-70905D02*
X90263Y-70807D01*
X90263Y-70995D02*
X90263Y-70905D01*
X89686Y-72163D02*
X90263Y-70995D01*
X91002Y-70688D02*
X92720Y-71017D01*
X90912Y-70688D02*
X91002Y-70688D01*
X90814Y-70688D02*
X90912Y-70688D01*
X90696Y-70688D02*
X90814Y-70688D01*
X84812Y-69918D02*
X85764Y-69520D01*
X84066Y-70000D02*
X84812Y-69918D01*
X85941Y-73385D02*
X85669Y-73385D01*
X86533Y-73239D02*
X85941Y-73385D01*
X86837Y-73239D02*
X86533Y-73239D01*
X87674Y-73644D02*
X86837Y-73239D01*
X81239Y-71827D02*
X79993Y-72635D01*
X85764Y-69520D02*
X85918Y-70767D01*
X81239Y-71827D02*
X83326Y-72184D01*
X93237Y-68408D02*
X93248Y-69704D01*
G54D10*
G36*
X86402Y-70900D02*
X85553Y-71228D01*
X85571Y-71210D01*
X85620Y-71091D01*
X85620Y-70961D01*
X85571Y-70842D01*
X85480Y-70750D01*
X85360Y-70701D01*
X85231Y-70701D01*
X85141Y-70738D01*
X84027Y-70176D01*
X82090Y-68753D01*
X82092Y-68749D01*
X82092Y-68573D01*
X82025Y-68410D01*
X81947Y-68332D01*
X83351Y-68332D01*
X83274Y-68410D01*
X83206Y-68572D01*
X83206Y-68749D01*
X83273Y-68911D01*
X83398Y-69036D01*
X83561Y-69104D01*
X83737Y-69104D01*
X83831Y-69065D01*
X84324Y-69491D01*
X84324Y-69588D01*
X84374Y-69708D01*
X84465Y-69799D01*
X84584Y-69849D01*
X84713Y-69849D01*
X84833Y-69800D01*
X84924Y-69708D01*
X84974Y-69589D01*
X84974Y-69460D01*
X84925Y-69340D01*
X84833Y-69249D01*
X84714Y-69199D01*
X84585Y-69199D01*
X84567Y-69206D01*
X84448Y-69104D01*
X84974Y-69104D01*
X85028Y-69081D01*
X85069Y-69040D01*
X85092Y-68986D01*
X85092Y-68927D01*
X85092Y-68336D01*
X85090Y-68332D01*
X85552Y-68332D01*
X85475Y-68410D01*
X85407Y-68572D01*
X85407Y-68749D01*
X85474Y-68911D01*
X85599Y-69036D01*
X85761Y-69104D01*
X85817Y-69104D01*
X86326Y-70449D01*
X86322Y-70453D01*
X86273Y-70572D01*
X86273Y-70701D01*
X86322Y-70820D01*
X86402Y-70900D01*
X86402Y-70900D01*
G37*
G54D20*
X86402Y-70900D02*
X85553Y-71228D01*
X85571Y-71210D01*
X85620Y-71091D01*
X85620Y-70961D01*
X85571Y-70842D01*
X85480Y-70750D01*
X85360Y-70701D01*
X85231Y-70701D01*
X85141Y-70738D01*
X84027Y-70176D01*
X82090Y-68753D01*
X82092Y-68749D01*
X82092Y-68573D01*
X82025Y-68410D01*
X81947Y-68332D01*
X83351Y-68332D01*
X83274Y-68410D01*
X83206Y-68572D01*
X83206Y-68749D01*
X83273Y-68911D01*
X83398Y-69036D01*
X83561Y-69104D01*
X83737Y-69104D01*
X83831Y-69065D01*
X84324Y-69491D01*
X84324Y-69588D01*
X84374Y-69708D01*
X84465Y-69799D01*
X84584Y-69849D01*
X84713Y-69849D01*
X84833Y-69800D01*
X84924Y-69708D01*
X84974Y-69589D01*
X84974Y-69460D01*
X84925Y-69340D01*
X84833Y-69249D01*
X84714Y-69199D01*
X84585Y-69199D01*
X84567Y-69206D01*
X84448Y-69104D01*
X84974Y-69104D01*
X85028Y-69081D01*
X85069Y-69040D01*
X85092Y-68986D01*
X85092Y-68927D01*
X85092Y-68336D01*
X85090Y-68332D01*
X85552Y-68332D01*
X85475Y-68410D01*
X85407Y-68572D01*
X85407Y-68749D01*
X85474Y-68911D01*
X85599Y-69036D01*
X85761Y-69104D01*
X85817Y-69104D01*
X86326Y-70449D01*
X86322Y-70453D01*
X86273Y-70572D01*
X86273Y-70701D01*
X86322Y-70820D01*
X86402Y-70900D01*
G54D10*
G36*
X87264Y-74186D02*
X79261Y-74186D01*
X79261Y-72557D01*
X79200Y-72409D01*
X79087Y-72295D01*
X78938Y-72234D01*
X78778Y-72234D01*
X78629Y-72295D01*
X78516Y-72408D01*
X78454Y-72557D01*
X78454Y-72717D01*
X78515Y-72866D01*
X78629Y-72979D01*
X78777Y-73041D01*
X78938Y-73041D01*
X79086Y-72980D01*
X79200Y-72866D01*
X79261Y-72718D01*
X79261Y-72557D01*
X79261Y-74186D01*
X76994Y-74186D01*
X76994Y-68332D01*
X81351Y-68332D01*
X81274Y-68410D01*
X81206Y-68572D01*
X81206Y-68749D01*
X81273Y-68911D01*
X81398Y-69036D01*
X81561Y-69104D01*
X81737Y-69104D01*
X81864Y-69051D01*
X83128Y-69979D01*
X83024Y-69979D01*
X82904Y-70028D01*
X82813Y-70120D01*
X82763Y-70239D01*
X82763Y-70368D01*
X82812Y-70488D01*
X82904Y-70579D01*
X82956Y-70601D01*
X83121Y-70951D01*
X83111Y-70975D01*
X83111Y-71104D01*
X83142Y-71179D01*
X79247Y-70981D01*
X79261Y-70946D01*
X79261Y-70786D01*
X79200Y-70637D01*
X79087Y-70524D01*
X78938Y-70462D01*
X78778Y-70462D01*
X78629Y-70523D01*
X78516Y-70637D01*
X78454Y-70785D01*
X78454Y-70946D01*
X78515Y-71094D01*
X78629Y-71208D01*
X78754Y-71259D01*
X78629Y-71311D01*
X78516Y-71424D01*
X78454Y-71572D01*
X78454Y-71733D01*
X78515Y-71881D01*
X78629Y-71995D01*
X78777Y-72057D01*
X78938Y-72057D01*
X79086Y-71995D01*
X79200Y-71882D01*
X79261Y-71734D01*
X79261Y-71573D01*
X79228Y-71493D01*
X83248Y-71697D01*
X83250Y-71696D01*
X83254Y-71697D01*
X83260Y-71697D01*
X83263Y-71697D01*
X83265Y-71697D01*
X83362Y-71697D01*
X83328Y-71778D01*
X83328Y-71908D01*
X83377Y-72027D01*
X83469Y-72119D01*
X83474Y-72121D01*
X83474Y-72252D01*
X83151Y-72607D01*
X83140Y-72624D01*
X83127Y-72638D01*
X82955Y-72903D01*
X81603Y-72765D01*
X81551Y-72713D01*
X81432Y-72664D01*
X81302Y-72664D01*
X81183Y-72713D01*
X81092Y-72804D01*
X81042Y-72924D01*
X81042Y-73053D01*
X81091Y-73172D01*
X81183Y-73264D01*
X81302Y-73313D01*
X81431Y-73313D01*
X81550Y-73264D01*
X81559Y-73255D01*
X82895Y-73391D01*
X82970Y-73621D01*
X82974Y-73630D01*
X82976Y-73639D01*
X82998Y-73672D01*
X83016Y-73705D01*
X83024Y-73711D01*
X83029Y-73719D01*
X83260Y-73950D01*
X83300Y-73976D01*
X83340Y-74003D01*
X83340Y-74003D01*
X83340Y-74003D01*
X83387Y-74013D01*
X83434Y-74022D01*
X83434Y-74022D01*
X85506Y-74026D01*
X85509Y-74025D01*
X85832Y-74025D01*
X85857Y-74020D01*
X85882Y-74020D01*
X86522Y-73890D01*
X86620Y-73931D01*
X86749Y-73931D01*
X86764Y-73925D01*
X87264Y-74186D01*
X87264Y-74186D01*
G37*
G54D20*
X87264Y-74186D02*
X79261Y-74186D01*
X79261Y-72557D01*
X79200Y-72409D01*
X79087Y-72295D01*
X78938Y-72234D01*
X78778Y-72234D01*
X78629Y-72295D01*
X78516Y-72408D01*
X78454Y-72557D01*
X78454Y-72717D01*
X78515Y-72866D01*
X78629Y-72979D01*
X78777Y-73041D01*
X78938Y-73041D01*
X79086Y-72980D01*
X79200Y-72866D01*
X79261Y-72718D01*
X79261Y-72557D01*
X79261Y-74186D01*
X76994Y-74186D01*
X76994Y-68332D01*
X81351Y-68332D01*
X81274Y-68410D01*
X81206Y-68572D01*
X81206Y-68749D01*
X81273Y-68911D01*
X81398Y-69036D01*
X81561Y-69104D01*
X81737Y-69104D01*
X81864Y-69051D01*
X83128Y-69979D01*
X83024Y-69979D01*
X82904Y-70028D01*
X82813Y-70120D01*
X82763Y-70239D01*
X82763Y-70368D01*
X82812Y-70488D01*
X82904Y-70579D01*
X82956Y-70601D01*
X83121Y-70951D01*
X83111Y-70975D01*
X83111Y-71104D01*
X83142Y-71179D01*
X79247Y-70981D01*
X79261Y-70946D01*
X79261Y-70786D01*
X79200Y-70637D01*
X79087Y-70524D01*
X78938Y-70462D01*
X78778Y-70462D01*
X78629Y-70523D01*
X78516Y-70637D01*
X78454Y-70785D01*
X78454Y-70946D01*
X78515Y-71094D01*
X78629Y-71208D01*
X78754Y-71259D01*
X78629Y-71311D01*
X78516Y-71424D01*
X78454Y-71572D01*
X78454Y-71733D01*
X78515Y-71881D01*
X78629Y-71995D01*
X78777Y-72057D01*
X78938Y-72057D01*
X79086Y-71995D01*
X79200Y-71882D01*
X79261Y-71734D01*
X79261Y-71573D01*
X79228Y-71493D01*
X83248Y-71697D01*
X83250Y-71696D01*
X83254Y-71697D01*
X83260Y-71697D01*
X83263Y-71697D01*
X83265Y-71697D01*
X83362Y-71697D01*
X83328Y-71778D01*
X83328Y-71908D01*
X83377Y-72027D01*
X83469Y-72119D01*
X83474Y-72121D01*
X83474Y-72252D01*
X83151Y-72607D01*
X83140Y-72624D01*
X83127Y-72638D01*
X82955Y-72903D01*
X81603Y-72765D01*
X81551Y-72713D01*
X81432Y-72664D01*
X81302Y-72664D01*
X81183Y-72713D01*
X81092Y-72804D01*
X81042Y-72924D01*
X81042Y-73053D01*
X81091Y-73172D01*
X81183Y-73264D01*
X81302Y-73313D01*
X81431Y-73313D01*
X81550Y-73264D01*
X81559Y-73255D01*
X82895Y-73391D01*
X82970Y-73621D01*
X82974Y-73630D01*
X82976Y-73639D01*
X82998Y-73672D01*
X83016Y-73705D01*
X83024Y-73711D01*
X83029Y-73719D01*
X83260Y-73950D01*
X83300Y-73976D01*
X83340Y-74003D01*
X83340Y-74003D01*
X83340Y-74003D01*
X83387Y-74013D01*
X83434Y-74022D01*
X83434Y-74022D01*
X85506Y-74026D01*
X85509Y-74025D01*
X85832Y-74025D01*
X85857Y-74020D01*
X85882Y-74020D01*
X86522Y-73890D01*
X86620Y-73931D01*
X86749Y-73931D01*
X86764Y-73925D01*
X87264Y-74186D01*
G54D10*
G36*
X88380Y-73142D02*
X87893Y-73634D01*
X87735Y-73792D01*
X87572Y-73792D01*
X86987Y-73486D01*
X86960Y-73422D01*
X86869Y-73331D01*
X86750Y-73281D01*
X86621Y-73281D01*
X86501Y-73330D01*
X86424Y-73408D01*
X85808Y-73533D01*
X85506Y-73533D01*
X85504Y-73533D01*
X83984Y-73531D01*
X85434Y-73384D01*
X85466Y-73374D01*
X85481Y-73371D01*
X85488Y-73367D01*
X85504Y-73362D01*
X85529Y-73341D01*
X85543Y-73333D01*
X85616Y-73265D01*
X85880Y-73265D01*
X85891Y-73263D01*
X85902Y-73263D01*
X86474Y-73196D01*
X86895Y-73196D01*
X86898Y-73196D01*
X86902Y-73196D01*
X88380Y-73142D01*
X88380Y-73142D01*
G37*
G54D20*
X88380Y-73142D02*
X87893Y-73634D01*
X87735Y-73792D01*
X87572Y-73792D01*
X86987Y-73486D01*
X86960Y-73422D01*
X86869Y-73331D01*
X86750Y-73281D01*
X86621Y-73281D01*
X86501Y-73330D01*
X86424Y-73408D01*
X85808Y-73533D01*
X85506Y-73533D01*
X85504Y-73533D01*
X83984Y-73531D01*
X85434Y-73384D01*
X85466Y-73374D01*
X85481Y-73371D01*
X85488Y-73367D01*
X85504Y-73362D01*
X85529Y-73341D01*
X85543Y-73333D01*
X85616Y-73265D01*
X85880Y-73265D01*
X85891Y-73263D01*
X85902Y-73263D01*
X86474Y-73196D01*
X86895Y-73196D01*
X86898Y-73196D01*
X86902Y-73196D01*
X88380Y-73142D01*
G54D10*
G36*
X89008Y-72159D02*
X88923Y-72124D01*
X88794Y-72124D01*
X88674Y-72173D01*
X88583Y-72264D01*
X88552Y-72339D01*
X88436Y-72291D01*
X88307Y-72291D01*
X88187Y-72340D01*
X88096Y-72432D01*
X88080Y-72469D01*
X87010Y-72623D01*
X87022Y-72596D01*
X87022Y-72466D01*
X86972Y-72347D01*
X86881Y-72256D01*
X86783Y-72215D01*
X86878Y-72181D01*
X86885Y-72188D01*
X87004Y-72237D01*
X87133Y-72238D01*
X87253Y-72188D01*
X87344Y-72097D01*
X87394Y-71978D01*
X87394Y-71848D01*
X87345Y-71729D01*
X87253Y-71637D01*
X87197Y-71614D01*
X88571Y-70444D01*
X88577Y-70437D01*
X88601Y-70493D01*
X88679Y-70572D01*
X89008Y-72159D01*
X89008Y-72159D01*
G37*
G54D20*
X89008Y-72159D02*
X88923Y-72124D01*
X88794Y-72124D01*
X88674Y-72173D01*
X88583Y-72264D01*
X88552Y-72339D01*
X88436Y-72291D01*
X88307Y-72291D01*
X88187Y-72340D01*
X88096Y-72432D01*
X88080Y-72469D01*
X87010Y-72623D01*
X87022Y-72596D01*
X87022Y-72466D01*
X86972Y-72347D01*
X86881Y-72256D01*
X86783Y-72215D01*
X86878Y-72181D01*
X86885Y-72188D01*
X87004Y-72237D01*
X87133Y-72238D01*
X87253Y-72188D01*
X87344Y-72097D01*
X87394Y-71978D01*
X87394Y-71848D01*
X87345Y-71729D01*
X87253Y-71637D01*
X87197Y-71614D01*
X88571Y-70444D01*
X88577Y-70437D01*
X88601Y-70493D01*
X88679Y-70572D01*
X89008Y-72159D01*
G54D10*
G36*
X93494Y-74186D02*
X88036Y-74186D01*
X88241Y-73982D01*
X88242Y-73981D01*
X88242Y-73981D01*
X89426Y-72784D01*
X89427Y-72784D01*
X89427Y-72783D01*
X89428Y-72784D01*
X89469Y-72792D01*
X89517Y-72803D01*
X89520Y-72802D01*
X89523Y-72803D01*
X89849Y-72803D01*
X89851Y-72802D01*
X89853Y-72803D01*
X89898Y-72793D01*
X89943Y-72784D01*
X89945Y-72783D01*
X89947Y-72782D01*
X91012Y-72319D01*
X91046Y-72333D01*
X91175Y-72333D01*
X91295Y-72284D01*
X91386Y-72193D01*
X91399Y-72163D01*
X92098Y-71900D01*
X92146Y-71920D01*
X92276Y-71920D01*
X92395Y-71871D01*
X92486Y-71780D01*
X92536Y-71660D01*
X92536Y-71531D01*
X92487Y-71412D01*
X92395Y-71320D01*
X92276Y-71271D01*
X92147Y-71271D01*
X92027Y-71320D01*
X91936Y-71411D01*
X91924Y-71440D01*
X91223Y-71703D01*
X91176Y-71684D01*
X91047Y-71683D01*
X90927Y-71733D01*
X90836Y-71824D01*
X90818Y-71867D01*
X89798Y-72311D01*
X89574Y-72311D01*
X89552Y-72301D01*
X89530Y-72254D01*
X89173Y-70528D01*
X89453Y-70502D01*
X89486Y-70492D01*
X89524Y-70485D01*
X89535Y-70478D01*
X89545Y-70474D01*
X89572Y-70453D01*
X89604Y-70431D01*
X89835Y-70201D01*
X89888Y-70121D01*
X89888Y-70121D01*
X89907Y-70027D01*
X89907Y-69700D01*
X89902Y-69676D01*
X89902Y-69651D01*
X89799Y-69147D01*
X91345Y-69346D01*
X91404Y-69404D01*
X91523Y-69454D01*
X91652Y-69454D01*
X91772Y-69404D01*
X91863Y-69313D01*
X91913Y-69194D01*
X91913Y-69065D01*
X91863Y-68945D01*
X91772Y-68854D01*
X91653Y-68804D01*
X91523Y-68804D01*
X91404Y-68853D01*
X91401Y-68857D01*
X89731Y-68643D01*
X89673Y-68584D01*
X89553Y-68535D01*
X89424Y-68535D01*
X89305Y-68584D01*
X89213Y-68675D01*
X89164Y-68795D01*
X89163Y-68924D01*
X89213Y-69043D01*
X89291Y-69122D01*
X89294Y-69135D01*
X89183Y-69089D01*
X89054Y-69089D01*
X88935Y-69138D01*
X88843Y-69230D01*
X88794Y-69349D01*
X88794Y-69465D01*
X88550Y-69696D01*
X88527Y-69641D01*
X88497Y-69610D01*
X88558Y-69585D01*
X88649Y-69494D01*
X88699Y-69374D01*
X88699Y-69245D01*
X88649Y-69126D01*
X88558Y-69034D01*
X88439Y-68985D01*
X88309Y-68985D01*
X88190Y-69034D01*
X88099Y-69125D01*
X88049Y-69245D01*
X88049Y-69307D01*
X88007Y-69336D01*
X87995Y-69348D01*
X87981Y-69357D01*
X87785Y-69553D01*
X87783Y-69557D01*
X87778Y-69560D01*
X87191Y-70210D01*
X87191Y-70158D01*
X87142Y-70039D01*
X87051Y-69947D01*
X87050Y-69947D01*
X87041Y-69061D01*
X87100Y-69037D01*
X87225Y-68912D01*
X87293Y-68749D01*
X87293Y-68573D01*
X87226Y-68410D01*
X87148Y-68332D01*
X93494Y-68332D01*
X93494Y-74186D01*
X93494Y-74186D01*
G37*
G54D20*
X93494Y-74186D02*
X88036Y-74186D01*
X88241Y-73982D01*
X88242Y-73981D01*
X88242Y-73981D01*
X89426Y-72784D01*
X89427Y-72784D01*
X89427Y-72783D01*
X89428Y-72784D01*
X89469Y-72792D01*
X89517Y-72803D01*
X89520Y-72802D01*
X89523Y-72803D01*
X89849Y-72803D01*
X89851Y-72802D01*
X89853Y-72803D01*
X89898Y-72793D01*
X89943Y-72784D01*
X89945Y-72783D01*
X89947Y-72782D01*
X91012Y-72319D01*
X91046Y-72333D01*
X91175Y-72333D01*
X91295Y-72284D01*
X91386Y-72193D01*
X91399Y-72163D01*
X92098Y-71900D01*
X92146Y-71920D01*
X92276Y-71920D01*
X92395Y-71871D01*
X92486Y-71780D01*
X92536Y-71660D01*
X92536Y-71531D01*
X92487Y-71412D01*
X92395Y-71320D01*
X92276Y-71271D01*
X92147Y-71271D01*
X92027Y-71320D01*
X91936Y-71411D01*
X91924Y-71440D01*
X91223Y-71703D01*
X91176Y-71684D01*
X91047Y-71683D01*
X90927Y-71733D01*
X90836Y-71824D01*
X90818Y-71867D01*
X89798Y-72311D01*
X89574Y-72311D01*
X89552Y-72301D01*
X89530Y-72254D01*
X89173Y-70528D01*
X89453Y-70502D01*
X89486Y-70492D01*
X89524Y-70485D01*
X89535Y-70478D01*
X89545Y-70474D01*
X89572Y-70453D01*
X89604Y-70431D01*
X89835Y-70201D01*
X89888Y-70121D01*
X89888Y-70121D01*
X89907Y-70027D01*
X89907Y-69700D01*
X89902Y-69676D01*
X89902Y-69651D01*
X89799Y-69147D01*
X91345Y-69346D01*
X91404Y-69404D01*
X91523Y-69454D01*
X91652Y-69454D01*
X91772Y-69404D01*
X91863Y-69313D01*
X91913Y-69194D01*
X91913Y-69065D01*
X91863Y-68945D01*
X91772Y-68854D01*
X91653Y-68804D01*
X91523Y-68804D01*
X91404Y-68853D01*
X91401Y-68857D01*
X89731Y-68643D01*
X89673Y-68584D01*
X89553Y-68535D01*
X89424Y-68535D01*
X89305Y-68584D01*
X89213Y-68675D01*
X89164Y-68795D01*
X89163Y-68924D01*
X89213Y-69043D01*
X89291Y-69122D01*
X89294Y-69135D01*
X89183Y-69089D01*
X89054Y-69089D01*
X88935Y-69138D01*
X88843Y-69230D01*
X88794Y-69349D01*
X88794Y-69465D01*
X88550Y-69696D01*
X88527Y-69641D01*
X88497Y-69610D01*
X88558Y-69585D01*
X88649Y-69494D01*
X88699Y-69374D01*
X88699Y-69245D01*
X88649Y-69126D01*
X88558Y-69034D01*
X88439Y-68985D01*
X88309Y-68985D01*
X88190Y-69034D01*
X88099Y-69125D01*
X88049Y-69245D01*
X88049Y-69307D01*
X88007Y-69336D01*
X87995Y-69348D01*
X87981Y-69357D01*
X87785Y-69553D01*
X87783Y-69557D01*
X87778Y-69560D01*
X87191Y-70210D01*
X87191Y-70158D01*
X87142Y-70039D01*
X87051Y-69947D01*
X87050Y-69947D01*
X87041Y-69061D01*
X87100Y-69037D01*
X87225Y-68912D01*
X87293Y-68749D01*
X87293Y-68573D01*
X87226Y-68410D01*
X87148Y-68332D01*
X93494Y-68332D01*
X93494Y-74186D01*
M02*
