G04 (created by PCBNEW (2013-07-07 BZR 4022)-stable) date 24/11/2014 17:48:06*
%MOIN*%
G04 Gerber Fmt 3.4, Leading zero omitted, Abs format*
%FSLAX34Y34*%
G01*
G70*
G90*
G04 APERTURE LIST*
%ADD10C,0.00590551*%
%ADD11C,0.047274*%
%ADD12R,0.027874X0.037874*%
%ADD13R,0.0511811X0.0188976*%
%ADD14O,0.0511811X0.0188976*%
%ADD15O,0.0188976X0.0511811*%
%ADD16R,0.0511811X0.0511811*%
%ADD17R,0.0314961X0.0314961*%
%ADD18R,0.0629921X0.0472441*%
%ADD19R,0.0216535X0.0472441*%
%ADD20R,0.042874X0.047874*%
%ADD21R,0.055074X0.019674*%
%ADD22O,0.055074X0.019674*%
%ADD23O,0.019674X0.055074*%
%ADD24C,0.15748*%
%ADD25R,0.055074X0.082674*%
%ADD26R,0.0669291X0.0669291*%
%ADD27C,0.0669291*%
%ADD28R,0.047874X0.042874*%
%ADD29C,0.137795*%
%ADD30C,0.0590551*%
%ADD31C,0.0708661*%
G04 APERTURE END LIST*
G54D10*
G54D11*
X88691Y-69645D03*
X88503Y-72047D03*
G54D12*
X79939Y-69555D03*
X80689Y-69555D03*
X79939Y-68555D03*
X80314Y-69555D03*
X80689Y-68555D03*
G54D13*
X89712Y-70078D03*
G54D14*
X89712Y-70275D03*
X89712Y-70472D03*
X89712Y-70669D03*
X89712Y-70866D03*
G54D15*
X90086Y-71240D03*
X90283Y-71240D03*
X90479Y-71240D03*
X90676Y-71240D03*
X90873Y-71240D03*
G54D14*
X91247Y-70866D03*
X91247Y-70669D03*
X91247Y-70472D03*
X91247Y-70275D03*
X91247Y-70078D03*
G54D15*
X90873Y-69704D03*
X90676Y-69704D03*
X90479Y-69704D03*
X90283Y-69704D03*
X90086Y-69704D03*
G54D16*
X90263Y-70255D03*
X90696Y-70255D03*
X90263Y-70688D03*
X90696Y-70688D03*
G54D17*
X92834Y-69409D03*
X92834Y-69803D03*
G54D18*
X90220Y-73295D03*
X91086Y-73295D03*
X91086Y-72665D03*
X90220Y-72665D03*
G54D17*
X93307Y-68937D03*
X93307Y-69330D03*
G54D19*
X92395Y-70172D03*
X92139Y-70172D03*
X91883Y-70172D03*
X91883Y-70881D03*
X92139Y-70881D03*
X92395Y-70881D03*
G54D20*
X82032Y-70551D03*
X81432Y-70551D03*
X80614Y-74015D03*
X80014Y-74015D03*
G54D21*
X82815Y-71121D03*
G54D22*
X82815Y-71317D03*
X82815Y-71514D03*
X82815Y-71711D03*
X82815Y-71908D03*
X82815Y-72105D03*
X82815Y-72302D03*
X82815Y-72499D03*
X82815Y-72695D03*
X82815Y-72892D03*
X82815Y-73089D03*
X82814Y-73286D03*
G54D23*
X83407Y-73877D03*
X83603Y-73877D03*
X83800Y-73877D03*
X83997Y-73877D03*
X84194Y-73877D03*
X84391Y-73877D03*
X84588Y-73877D03*
X84784Y-73877D03*
X84981Y-73877D03*
X85178Y-73877D03*
X85374Y-73877D03*
X85571Y-73877D03*
G54D22*
X86162Y-73287D03*
X86162Y-73090D03*
X86162Y-72893D03*
X86162Y-72696D03*
X86162Y-72499D03*
X86162Y-72302D03*
X86162Y-72105D03*
X86162Y-71909D03*
X86162Y-71712D03*
X86162Y-71515D03*
X86162Y-71318D03*
X86162Y-71121D03*
G54D23*
X85571Y-70531D03*
X85374Y-70531D03*
X85177Y-70531D03*
X84980Y-70531D03*
X84783Y-70531D03*
X84586Y-70531D03*
X84390Y-70531D03*
X84193Y-70531D03*
X83996Y-70531D03*
X83799Y-70531D03*
X83602Y-70531D03*
X83405Y-70531D03*
G54D24*
X107086Y-68897D03*
X79133Y-74015D03*
G54D25*
X79881Y-71791D03*
X79881Y-73247D03*
X80747Y-73247D03*
X80747Y-71791D03*
G54D20*
X80014Y-71023D03*
X80614Y-71023D03*
X80014Y-70314D03*
X80614Y-70314D03*
G54D26*
X84649Y-68661D03*
G54D27*
X83649Y-68661D03*
X82649Y-68661D03*
X81649Y-68661D03*
G54D26*
X87850Y-68661D03*
G54D27*
X86850Y-68661D03*
X85850Y-68661D03*
G54D28*
X90574Y-69028D03*
X90574Y-68428D03*
G54D20*
X86944Y-69606D03*
X87544Y-69606D03*
X86944Y-73149D03*
X87544Y-73149D03*
X82032Y-72519D03*
X81432Y-72519D03*
G54D28*
X87559Y-70329D03*
X87559Y-70929D03*
G54D20*
X88882Y-70708D03*
X88282Y-70708D03*
X86707Y-74015D03*
X87307Y-74015D03*
X82032Y-71181D03*
X81432Y-71181D03*
G54D28*
X81417Y-73400D03*
X81417Y-74000D03*
X82047Y-73400D03*
X82047Y-74000D03*
X91755Y-72759D03*
X91755Y-73359D03*
X89551Y-73359D03*
X89551Y-72759D03*
X89944Y-69028D03*
X89944Y-68428D03*
G54D20*
X90717Y-72064D03*
X90117Y-72064D03*
X81432Y-69685D03*
X82032Y-69685D03*
G54D28*
X91755Y-71499D03*
X91755Y-72099D03*
X91991Y-69265D03*
X91991Y-68665D03*
X91204Y-69028D03*
X91204Y-68428D03*
G54D20*
X88882Y-71338D03*
X88282Y-71338D03*
G54D28*
X86220Y-70221D03*
X86220Y-69621D03*
X87559Y-72425D03*
X87559Y-71825D03*
G54D29*
X77992Y-68897D03*
X77992Y-73622D03*
G54D30*
X78858Y-72637D03*
X78858Y-71653D03*
X78858Y-70866D03*
X78858Y-69881D03*
G54D31*
X77874Y-70354D03*
X77874Y-71968D03*
M02*
