M48
;DRILL file {Pcbnew (2013-07-07 BZR 4022)-stable} date 24/11/2014 17:48:15
;FORMAT={-:-/ absolute / metric / decimal}
FMAT,2
METRIC,TZ
T1C0.400
T2C0.800
T3C0.900
T4C1.100
T5C2.200
%
G90
G05
M71
T1
X203.184Y-184.495
X206.349Y-182.442
X206.673Y-185.392
X209.558Y-187.783
X211.044Y-178.573
X211.65Y-183.35
X211.929Y-180.443
X212.338Y-186.392
X212.48Y-182.483
X212.668Y-185.257
X213.528Y-177.801
X213.671Y-184.583
X214.281Y-181.756
X214.731Y-182.997
X214.817Y-184.707
X214.851Y-180.702
X215.01Y-176.592
X215.611Y-182.194
X216.441Y-184.678
X216.652Y-180.406
X217.538Y-183.975
X217.601Y-186.4
X217.842Y-176.581
X218.232Y-179.748
X219.959Y-179.419
X220.181Y-186.96
X220.211Y-184.229
X220.642Y-178.366
X221.157Y-182.659
X222.692Y-187.058
X222.762Y-181.2
X224.161Y-177.355
X224.463Y-184.446
X224.471Y-176.048
X225.Y-188.
X225.701Y-184.02
X225.747Y-178.587
X226.362Y-176.312
X226.739Y-177.454
X227.301Y-174.905
X227.5Y-188.
X227.803Y-183.295
X229.269Y-178.45
X229.269Y-179.55
X230.Y-188.
X230.369Y-178.45
X230.369Y-179.55
X231.423Y-182.902
X232.5Y-188.
X232.634Y-175.589
X234.218Y-181.854
X234.437Y-177.034
X235.Y-174.
X235.Y-183.
X235.Y-185.5
X235.Y-188.
X235.51Y-180.385
X236.824Y-173.757
X236.85Y-177.05
X237.Y-180.5
X237.Y-183.
X237.Y-185.5
X237.Y-188.
T2
X200.3Y-177.5
X200.3Y-180.
X200.3Y-182.
X200.3Y-184.5
T3
X207.39Y-174.4
X209.93Y-174.4
X212.47Y-174.4
X215.01Y-174.4
X218.06Y-174.4
X220.6Y-174.4
X223.14Y-174.4
T4
X197.8Y-178.7
X197.8Y-182.8
T5
X198.1Y-175.
X198.1Y-187.
T0
M30
